<?xml version="1.0" encoding="UTF-8"?>
<svg id="Calque_1" xmlns="http://www.w3.org/2000/svg" version="1.1" viewBox="0 0 256 256">
  <!-- Generator: Adobe Illustrator 29.6.1, SVG Export Plug-In . SVG Version: 2.1.1 Build 9)  -->
  <defs>
    <style>
      .st0 {
        fill: #9e005d;
      }
    </style>
  </defs>
  <path class="st0" d="M99.86,178.47l-14.67,24.95,170.72-.72L147.67,19.4h-30.42l90.15,152c.89,1.5.91,3.36.04,4.88-.86,1.51-2.47,2.44-4.21,2.44h-.01l-39.45-.09c-.6.11-1.2.11-1.79,0l-61.66-.14c-.16,0-.31,0-.47-.02Z"/>
  <path class="st0" d="M76.71,213.16h-.02c-1.73,0-3.34-.93-4.2-2.43-.87-1.51-.86-3.37.02-4.87l51.44-87.49-15.27-25.47L24.01,236.6h218.16l13.83-24.21-179.29.76Z"/>
  <path class="st0" d="M15.4,232.11L104.47,80.94c.87-1.47,2.45-2.38,4.16-2.39h.02c1.7,0,3.28.89,4.16,2.36l20.93,34.91s.01.02.02.03l31.83,53.09,29.13.06L108.74,24.05,0,207.45l15.4,24.66Z"/>
</svg>