<?xml version="1.0" encoding="UTF-8"?>
<svg id="Calque_1" xmlns="http://www.w3.org/2000/svg" version="1.1" viewBox="0 0 2448 1546">
  <!-- Generator: Adobe Illustrator 29.6.1, SVG Export Plug-In . SVG Version: 2.1.1 Build 9)  -->
  <defs>
    <style>
      .st0, .st1, .st2, .st3, .st4, .st5 {
        stroke-width: 4px;
      }

      .st0, .st1, .st2, .st3, .st4, .st5, .st6, .st7 {
        stroke: #000;
        stroke-miterlimit: 10;
      }

      .st0, .st8 {
        fill: #39b54a;
      }

      .st1, .st9 {
        fill: red;
      }

      .st2, .st10 {
        fill: #8cc63f;
      }

      .st3, .st11 {
        fill: #fcee21;
      }

      .st12, .st5 {
        fill: #009245;
      }

      .st4, .st13 {
        fill: #f7931e;
      }

      .st14 {
        fill: #fff;
      }

      .st6 {
        stroke-width: 16px;
      }

      .st6, .st7 {
        fill: none;
        stroke-linecap: round;
      }

      .st7 {
        stroke-width: 10px;
      }
    </style>
  </defs>
  <g id="Fond">
    <rect class="st14" width="2448" height="1546"/>
  </g>
  <g id="Couleurs">
    <rect class="st9" x="113.34" y="90.42" width="2281.07" height="1366.6"/>
    <path class="st13" d="M113.34,1457.01s210.88-98.01,280.18-488.09c69.3-390.08,136.63-878.5,136.63-878.5h1864.26v1366.6H113.34Z"/>
    <polygon class="st11" points="113.34 1457.01 1870.67 90.42 2394.41 90.42 2394.41 547.16 2394.41 1457.01 113.34 1457.01"/>
    <polygon class="st10" points="113.34 1457.01 2394.41 1002.08 2394.41 1457.01 113.34 1457.01"/>
    <polygon class="st8" points="113.34 1457.01 2394.41 1343.16 2394.41 1457.01 113.34 1457.01"/>
    <polygon class="st12" points="113.34 1457.01 2394.41 1457.01 2394.41 1416.42 113.34 1457.01"/>
  </g>
  <g id="Lignes">
    <path class="st7" d="M113.34,1457.01s50.37,13.55,66-146.86c27.72-284.47,22.44-657.39,22.44-745.84V90.42"/>
    <line class="st7" x1="113.34" y1="1457.01" x2="2394.41" y2="1307.51"/>
    <path class="st7" d="M113.34,1457.01s452.45-127.72,874.21-289.09c732.59-280.31,1406.86-620.76,1406.86-620.76"/>
    <path class="st7" d="M113.34,1457.01s168.97-74.91,310.21-362.69C623.07,687.84,720.57,90.42,720.57,90.42"/>
    <path class="st7" d="M113.34,1457.01s83.16-22.11,128.05-162.04c74.59-232.54,79.2-658.71,83.16-1204.56"/>
    <polyline class="st6" points="2394.41 1457.01 113.34 1457.01 113.34 90.42"/>
  </g>
  <g id="Labels">
    <g>
      <path d="M228.9,153.69c-3.2,0-6-.74-8.4-2.21-2.39-1.48-4.06-3.71-5-6.7-.22-.65-.39-1.28-.51-1.89-.13-.61-.23-1.3-.3-2.05-.07-.76-.13-1.62-.16-2.59-.04-.97-.05-2.14-.05-3.51s.02-2.54.05-3.51c.04-.97.09-1.84.16-2.59.07-.76.17-1.44.3-2.05s.3-1.24.51-1.89c.94-2.95,2.6-5.17,5-6.67,2.39-1.49,5.19-2.24,8.4-2.24s6,.75,8.4,2.24c2.39,1.49,4.06,3.72,5,6.67.22.65.39,1.28.51,1.89.13.61.22,1.3.3,2.05.07.76.13,1.62.16,2.59.04.97.05,2.14.05,3.51s-.02,2.54-.05,3.51c-.04.97-.09,1.84-.16,2.59-.07.76-.17,1.44-.3,2.05s-.3,1.24-.51,1.89c-.94,2.99-2.6,5.22-5,6.7-2.39,1.48-5.19,2.21-8.4,2.21ZM228.9,146.67c1.51,0,2.75-.36,3.73-1.08.97-.72,1.66-1.71,2.05-2.97.11-.32.2-.69.27-1.11.07-.41.14-.92.19-1.51s.09-1.32.11-2.19c.02-.86.03-1.89.03-3.08s0-2.21-.03-3.08c-.02-.86-.05-1.59-.11-2.19-.05-.59-.12-1.1-.19-1.51-.07-.41-.16-.78-.27-1.11-.4-1.26-1.08-2.25-2.05-2.97s-2.21-1.08-3.73-1.08-2.75.36-3.73,1.08c-.97.72-1.66,1.71-2.05,2.97-.11.32-.2.69-.27,1.11-.07.41-.14.92-.19,1.51s-.09,1.32-.11,2.19c-.02.86-.03,1.89-.03,3.08s0,2.21.03,3.08c.02.86.05,1.59.11,2.19.05.59.12,1.1.19,1.51.07.41.16.78.27,1.11.4,1.26,1.08,2.25,2.05,2.97s2.21,1.08,3.73,1.08Z"/>
      <path d="M252.56,157.09c-2.38-3.28-4.13-6.79-5.27-10.53-1.13-3.74-1.7-7.47-1.7-11.18s.57-7.43,1.7-11.18c1.13-3.74,2.89-7.25,5.27-10.53.25-.36.54-.54.86-.54h3.89c.4,0,.5.18.32.54-1.58,3.28-2.79,6.79-3.62,10.53s-1.24,7.47-1.24,11.18.42,7.45,1.27,11.23,2.04,7.27,3.59,10.48c.18.36.07.54-.32.54h-3.89c-.32,0-.61-.18-.86-.54Z"/>
      <path d="M275.22,153.1c-.36,0-.54-.18-.54-.54v-15.05c0-1.44-.33-2.6-1-3.47s-1.68-1.3-3.05-1.3-2.3.43-3.02,1.3c-.72.87-1.08,2.02-1.08,3.47v15.05c0,.36-.18.54-.54.54h-6.48c-.36,0-.54-.18-.54-.54v-25.06c0-.36.18-.54.54-.54h6.48c.36,0,.54.18.54.54v1.84h.05c.61-.83,1.47-1.53,2.56-2.11,1.1-.58,2.49-.86,4.19-.86,1.44,0,2.72.23,3.83.7,1.12.47,2.05,1.13,2.81,2,.76.86,1.32,1.89,1.7,3.08s.57,2.5.57,3.94v16.47c0,.36-.18.54-.54.54h-6.48Z"/>
      <path d="M287.73,142.35c-.36,0-.54-.18-.54-.54l-1.3-24.89c0-.36.18-.54.54-.54h7.02c.36,0,.54.18.54.54l-1.3,24.89c0,.36-.18.54-.54.54h-4.43,0ZM286.16,146.4c0-.36.18-.54.54-.54h6.48c.36,0,.54.18.54.54v6.16c0,.36-.18.54-.54.54h-6.48c-.36,0-.54-.18-.54-.54v-6.16Z"/>
      <path d="M296.14,157.09c1.55-3.2,2.74-6.7,3.59-10.48s1.27-7.52,1.27-11.23-.41-7.43-1.24-11.18c-.83-3.74-2.03-7.25-3.62-10.53-.18-.36-.07-.54.32-.54h3.89c.32,0,.61.18.86.54,2.38,3.28,4.13,6.79,5.26,10.53s1.7,7.47,1.7,11.18-.57,7.43-1.7,11.18c-1.13,3.74-2.89,7.25-5.26,10.53-.25.36-.54.54-.86.54h-3.89c-.4,0-.5-.18-.32-.54Z"/>
    </g>
    <g>
      <path d="M358.66,153.69c-3.2,0-6-.74-8.4-2.21-2.39-1.48-4.06-3.71-5-6.7-.22-.65-.39-1.28-.51-1.89-.13-.61-.23-1.3-.3-2.05-.07-.76-.13-1.62-.16-2.59-.04-.97-.05-2.14-.05-3.51s.02-2.54.05-3.51c.04-.97.09-1.84.16-2.59.07-.76.17-1.44.3-2.05.13-.61.3-1.24.51-1.89.94-2.95,2.6-5.17,5-6.67,2.39-1.49,5.19-2.24,8.4-2.24s6,.75,8.4,2.24c2.39,1.49,4.06,3.72,5,6.67.22.65.39,1.28.51,1.89.13.61.22,1.3.3,2.05.07.76.13,1.62.16,2.59.04.97.05,2.14.05,3.51s-.02,2.54-.05,3.51c-.04.97-.09,1.84-.16,2.59-.07.76-.17,1.44-.3,2.05-.13.61-.3,1.24-.51,1.89-.94,2.99-2.6,5.22-5,6.7-2.39,1.48-5.19,2.21-8.4,2.21ZM358.66,146.67c1.51,0,2.75-.36,3.73-1.08.97-.72,1.66-1.71,2.05-2.97.11-.32.2-.69.27-1.11.07-.41.14-.92.19-1.51s.09-1.32.11-2.19c.02-.86.03-1.89.03-3.08s0-2.21-.03-3.08c-.02-.86-.05-1.59-.11-2.19-.05-.59-.12-1.1-.19-1.51-.07-.41-.16-.78-.27-1.11-.4-1.26-1.08-2.25-2.05-2.97s-2.21-1.08-3.73-1.08-2.75.36-3.73,1.08c-.97.72-1.66,1.71-2.05,2.97-.11.32-.2.69-.27,1.11-.07.41-.14.92-.19,1.51s-.09,1.32-.11,2.19c-.02.86-.03,1.89-.03,3.08s0,2.21.03,3.08c.02.86.05,1.59.11,2.19.05.59.12,1.1.19,1.51.07.41.16.78.27,1.11.4,1.26,1.08,2.25,2.05,2.97s2.21,1.08,3.73,1.08Z"/>
      <path d="M384.49,157.09c-2.38-3.28-4.13-6.79-5.27-10.53-1.13-3.74-1.7-7.47-1.7-11.18s.57-7.43,1.7-11.18c1.13-3.74,2.89-7.25,5.27-10.53.25-.36.54-.54.86-.54h3.89c.4,0,.5.18.32.54-1.58,3.28-2.79,6.79-3.62,10.53s-1.24,7.47-1.24,11.18.42,7.45,1.27,11.23c.85,3.78,2.04,7.27,3.59,10.48.18.36.07.54-.32.54h-3.89c-.32,0-.61-.18-.86-.54Z"/>
      <path d="M393.32,147.54c0-.29.09-.54.27-.76l12.91-15.34c.72-.83,1.26-1.65,1.62-2.46.36-.81.54-1.68.54-2.62,0-1.22-.35-2.23-1.05-3.02-.7-.79-1.68-1.19-2.94-1.19-2.56,0-4,1.44-4.32,4.32,0,.36-.2.5-.59.43l-5.94-.97c-.36-.07-.5-.29-.43-.65.11-1.26.43-2.47.97-3.62s1.3-2.16,2.29-3.02c.99-.86,2.18-1.56,3.56-2.08,1.39-.52,2.96-.78,4.73-.78s3.34.27,4.73.81,2.56,1.28,3.54,2.22c.97.94,1.72,2.05,2.24,3.33s.78,2.66.78,4.14c0,1.77-.33,3.36-1,4.79-.67,1.42-1.58,2.8-2.73,4.14l-9.67,11.41v.11h12.85c.36,0,.54.18.54.54v5.3c0,.36-.18.54-.54.54h-21.82c-.36,0-.54-.18-.54-.54v-5.02h0Z"/>
      <path d="M421.91,115.05h4.48l.48,2.33h.13c1.44-1.46,3.32-2.76,5.72-2.76,4.06,0,5.62,2.88,5.62,7.28v10.93h-5.61v-10.25c0-2.17-.31-3.26-2.15-3.26-1.1,0-1.96.62-3.07,1.68v11.83h-5.61v-17.78h0Z"/>
      <path d="M441.56,157.09c1.55-3.2,2.74-6.7,3.59-10.48s1.27-7.52,1.27-11.23-.41-7.43-1.24-11.18c-.83-3.74-2.03-7.25-3.62-10.53-.18-.36-.07-.54.32-.54h3.89c.32,0,.61.18.86.54,2.38,3.28,4.13,6.79,5.26,10.53s1.7,7.47,1.7,11.18-.57,7.43-1.7,11.18c-1.13,3.74-2.89,7.25-5.26,10.53-.25.36-.54.54-.86.54h-3.89c-.4,0-.5-.18-.32-.54Z"/>
    </g>
    <g>
      <path d="M766.77,181.94c-3.2,0-6-.74-8.4-2.21-2.39-1.48-4.06-3.71-5-6.7-.22-.65-.39-1.28-.51-1.89-.13-.61-.23-1.3-.3-2.05-.07-.76-.13-1.62-.16-2.59-.04-.97-.05-2.14-.05-3.51s.02-2.54.05-3.51c.04-.97.09-1.84.16-2.59.07-.76.17-1.44.3-2.05s.3-1.24.51-1.89c.94-2.95,2.6-5.17,5-6.67,2.39-1.49,5.19-2.24,8.4-2.24s6,.75,8.4,2.24c2.39,1.49,4.06,3.72,5,6.67.22.65.39,1.28.51,1.89.13.61.22,1.3.3,2.05.07.76.13,1.62.16,2.59.04.97.05,2.14.05,3.51s-.02,2.54-.05,3.51c-.04.97-.09,1.84-.16,2.59-.07.76-.17,1.44-.3,2.05s-.3,1.24-.51,1.89c-.94,2.99-2.6,5.22-5,6.7-2.39,1.48-5.19,2.21-8.4,2.21ZM766.77,174.92c1.51,0,2.75-.36,3.73-1.08.97-.72,1.66-1.71,2.05-2.97.11-.32.2-.69.27-1.11.07-.41.14-.92.19-1.51s.09-1.32.11-2.19c.02-.86.03-1.89.03-3.08s0-2.21-.03-3.08c-.02-.86-.05-1.59-.11-2.19-.05-.59-.12-1.1-.19-1.51-.07-.41-.16-.78-.27-1.11-.4-1.26-1.08-2.25-2.05-2.97s-2.21-1.08-3.73-1.08-2.75.36-3.73,1.08c-.97.72-1.66,1.71-2.05,2.97-.11.32-.2.69-.27,1.11-.07.41-.14.92-.19,1.51s-.09,1.32-.11,2.19c-.02.86-.03,1.89-.03,3.08s0,2.21.03,3.08c.02.86.05,1.59.11,2.19.05.59.12,1.1.19,1.51.07.41.16.78.27,1.11.4,1.26,1.08,2.25,2.05,2.97s2.21,1.08,3.73,1.08Z"/>
      <path d="M792.6,185.35c-2.38-3.28-4.13-6.79-5.27-10.53-1.13-3.74-1.7-7.47-1.7-11.18s.57-7.43,1.7-11.18c1.13-3.74,2.89-7.25,5.27-10.53.25-.36.54-.54.86-.54h3.89c.4,0,.5.18.32.54-1.58,3.28-2.79,6.79-3.62,10.53s-1.24,7.47-1.24,11.18.42,7.45,1.27,11.23c.85,3.78,2.04,7.27,3.59,10.48.18.36.07.54-.32.54h-3.89c-.32,0-.61-.18-.86-.54h0Z"/>
      <path d="M817.42,181.35c-.36,0-.54-.18-.54-.54v-15.05c0-1.44-.33-2.6-1-3.47s-1.68-1.3-3.05-1.3-2.3.43-3.02,1.3c-.72.87-1.08,2.02-1.08,3.47v15.05c0,.36-.18.54-.54.54h-6.48c-.36,0-.54-.18-.54-.54v-25.06c0-.36.18-.54.54-.54h6.48c.36,0,.54.18.54.54v1.84h.05c.61-.83,1.47-1.53,2.56-2.11,1.1-.58,2.49-.86,4.19-.86,1.44,0,2.72.23,3.83.7,1.12.47,2.05,1.13,2.81,2,.76.86,1.32,1.89,1.7,3.08s.57,2.5.57,3.94v16.47c0,.36-.18.54-.54.54h-6.48Z"/>
      <path d="M828.88,158.13c-.36,0-.54-.18-.54-.54v-3.56c0-.36.14-.67.43-.92l7.78-7.94c.4-.4.72-.82.97-1.27s.38-.93.38-1.43c0-.61-.17-1.1-.51-1.46s-.83-.54-1.47-.54c-1.24,0-1.97.68-2.19,2.05-.07.4-.27.56-.6.49l-4.31-.7c-.36-.07-.51-.27-.44-.59.04-.68.23-1.38.59-2.08.36-.7.85-1.34,1.48-1.92s1.41-1.04,2.35-1.4,2.03-.54,3.29-.54c2.16,0,3.93.6,5.32,1.8s2.08,2.81,2.08,4.82c0,1.15-.23,2.15-.68,3.01s-1.11,1.7-1.97,2.53l-5.18,5.28v.05h7.29c.36,0,.54.18.54.55v3.77c0,.36-.18.55-.54.55h-14.09.02,0Z"/>
      <path d="M847.46,185.35c1.55-3.2,2.74-6.7,3.59-10.48.85-3.78,1.27-7.52,1.27-11.23s-.41-7.43-1.24-11.18c-.83-3.74-2.03-7.25-3.62-10.53-.18-.36-.07-.54.32-.54h3.89c.32,0,.61.18.86.54,2.38,3.28,4.13,6.79,5.26,10.53s1.7,7.47,1.7,11.18-.57,7.43-1.7,11.18c-1.13,3.74-2.89,7.25-5.26,10.53-.25.36-.54.54-.86.54h-3.89c-.4,0-.5-.18-.32-.54h0Z"/>
    </g>
    <g>
      <path d="M2177.52,528.13c-3.2,0-6-.74-8.4-2.21-2.39-1.48-4.06-3.71-4.99-6.7-.22-.65-.39-1.28-.51-1.89-.13-.61-.22-1.3-.3-2.05-.07-.76-.13-1.62-.16-2.59-.04-.97-.05-2.14-.05-3.51s.02-2.54.05-3.51c.04-.97.09-1.84.16-2.59s.17-1.44.3-2.05c.13-.61.3-1.24.51-1.89.94-2.95,2.6-5.17,4.99-6.67,2.39-1.49,5.19-2.24,8.4-2.24s6,.75,8.4,2.24c2.39,1.49,4.06,3.72,4.99,6.67.22.65.39,1.28.51,1.89.12.61.22,1.3.3,2.05.07.76.12,1.62.16,2.59.04.97.05,2.14.05,3.51s-.02,2.54-.05,3.51c-.04.97-.09,1.84-.16,2.59-.07.76-.17,1.44-.3,2.05-.13.61-.3,1.24-.51,1.89-.94,2.99-2.6,5.22-4.99,6.7-2.39,1.48-5.19,2.21-8.4,2.21ZM2177.52,521.11c1.51,0,2.75-.36,3.73-1.08.97-.72,1.66-1.71,2.05-2.97.11-.32.2-.69.27-1.11.07-.41.13-.92.19-1.51.05-.59.09-1.32.11-2.19.02-.86.03-1.89.03-3.08s0-2.21-.03-3.08c-.02-.86-.05-1.59-.11-2.19-.05-.59-.12-1.1-.19-1.51-.07-.41-.16-.78-.27-1.11-.4-1.26-1.08-2.25-2.05-2.97s-2.21-1.08-3.73-1.08-2.75.36-3.73,1.08c-.97.72-1.66,1.71-2.05,2.97-.11.32-.2.69-.27,1.11-.07.41-.13.92-.19,1.51-.05.59-.09,1.32-.11,2.19-.02.86-.03,1.89-.03,3.08s0,2.21.03,3.08c.02.86.05,1.59.11,2.19.05.59.12,1.1.19,1.51.07.41.16.78.27,1.11.4,1.26,1.08,2.25,2.05,2.97s2.21,1.08,3.73,1.08Z"/>
      <path d="M2203.35,531.53c-2.38-3.28-4.13-6.79-5.26-10.53-1.13-3.74-1.7-7.47-1.7-11.18s.57-7.43,1.7-11.18c1.13-3.74,2.89-7.25,5.26-10.53.25-.36.54-.54.86-.54h3.89c.4,0,.5.18.32.54-1.58,3.28-2.79,6.79-3.62,10.53s-1.24,7.47-1.24,11.18.42,7.45,1.27,11.23c.84,3.78,2.04,7.27,3.59,10.48.18.36.07.54-.32.54h-3.89c-.32,0-.61-.18-.86-.54h0Z"/>
      <path d="M2228.17,527.54c-.36,0-.54-.18-.54-.54v-15.05c0-1.44-.33-2.6-1-3.47s-1.68-1.3-3.05-1.3-2.3.43-3.02,1.3-1.08,2.02-1.08,3.47v15.05c0,.36-.18.54-.54.54h-6.48c-.36,0-.54-.18-.54-.54v-25.06c0-.36.18-.54.54-.54h6.48c.36,0,.54.18.54.54v1.84h.05c.61-.83,1.47-1.53,2.57-2.11s2.49-.86,4.18-.86c1.44,0,2.72.23,3.83.7,1.12.47,2.05,1.13,2.81,2,.76.86,1.32,1.89,1.7,3.08.38,1.19.57,2.5.57,3.94v16.47c0,.36-.18.54-.54.54h-6.48Z"/>
      <path d="M2262.51,527.86c-2.92,0-5-.66-6.24-1.97s-1.86-3.43-1.86-6.35v-28.19c0-.36.18-.54.54-.54h6.48c.36,0,.54.18.54.54v27.64c0,.9.18,1.54.54,1.92s.94.57,1.73.57h1.13c.36,0,.54.18.54.54v5.3c0,.36-.18.54-.54.54h-2.86,0Z"/>
      <path d="M2280.94,528.13c-2.77,0-5.17-.63-7.18-1.89-2.02-1.26-3.4-3.08-4.16-5.45-.29-.94-.5-1.9-.65-2.89-.14-.99-.22-2.13-.22-3.43s.07-2.44.22-3.43c.14-.99.36-1.95.65-2.89.76-2.38,2.14-4.19,4.16-5.45s4.41-1.89,7.18-1.89,5.17.63,7.18,1.89c2.02,1.26,3.4,3.08,4.16,5.45.29.94.5,1.9.65,2.89.14.99.22,2.13.22,3.43s-.07,2.44-.22,3.43c-.14.99-.36,1.95-.65,2.89-.76,2.38-2.14,4.19-4.16,5.45s-4.41,1.89-7.18,1.89ZM2280.94,521.76c2.09,0,3.44-.94,4.05-2.81.18-.61.31-1.23.38-1.86.07-.63.11-1.5.11-2.62s-.04-1.99-.11-2.62-.2-1.25-.38-1.86c-.61-1.87-1.96-2.81-4.05-2.81s-3.44.94-4.05,2.81c-.18.61-.31,1.23-.38,1.86-.07.63-.11,1.5-.11,2.62s.04,1.99.11,2.62.2,1.25.38,1.86c.61,1.87,1.96,2.81,4.05,2.81Z"/>
      <path d="M2307.55,537.85c-.97,0-1.94-.1-2.92-.3-.97-.2-1.9-.47-2.78-.81-.88-.34-1.68-.76-2.4-1.24-.72-.49-1.32-1.02-1.78-1.59-.22-.29-.2-.56.05-.81l3.83-3.89c.25-.25.52-.25.81,0,.83.72,1.67,1.28,2.54,1.67.86.4,1.82.59,2.86.59,1.84,0,3.17-.48,4-1.43s1.24-2.4,1.24-4.35v-2.21h-.05c-.58.94-1.42,1.67-2.54,2.21-1.12.54-2.5.81-4.16.81-2.16,0-3.99-.53-5.48-1.59s-2.58-2.64-3.27-4.73c-.29-.97-.5-1.95-.65-2.94-.14-.99-.21-2.19-.21-3.59s.07-2.61.21-3.62.36-1.98.65-2.92c.68-2.09,1.77-3.66,3.27-4.73,1.49-1.06,3.32-1.59,5.48-1.59,1.66,0,3.04.27,4.16.81,1.12.54,1.96,1.28,2.54,2.21h.05v-1.89c0-.36.18-.54.54-.54h6.48c.36,0,.54.18.54.54v22.79c0,8.75-4.34,13.12-13.01,13.12v.02h0ZM2308.63,520.14c1.04,0,1.88-.23,2.51-.7.63-.47,1.09-1.17,1.38-2.11.18-.5.31-1.03.38-1.59.07-.56.11-1.25.11-2.08s-.04-1.52-.11-2.08c-.07-.56-.2-1.09-.38-1.59-.29-.94-.75-1.64-1.38-2.11-.63-.47-1.47-.7-2.51-.7s-1.87.23-2.48.7c-.61.47-1.08,1.17-1.4,2.11-.14.5-.25,1.04-.32,1.59-.07.56-.11,1.25-.11,2.08s.04,1.52.11,2.08.18,1.09.32,1.59c.32.94.79,1.64,1.4,2.11.61.47,1.44.7,2.48.7Z"/>
      <path d="M2356.36,527.54c-.36,0-.54-.18-.54-.54v-15.05c0-1.44-.33-2.6-1-3.47s-1.68-1.3-3.05-1.3c-1.29,0-2.3.43-3.02,1.3s-1.08,2.02-1.08,3.47v15.05c0,.36-.18.54-.54.54h-6.48c-.36,0-.54-.18-.54-.54v-25.06c0-.36.18-.54.54-.54h6.48c.36,0,.54.18.54.54v1.84h.05c.61-.83,1.47-1.53,2.56-2.11,1.1-.58,2.49-.86,4.19-.86,1.44,0,2.72.23,3.83.7,1.12.47,2.05,1.13,2.81,2,.76.86,1.32,1.89,1.7,3.08.38,1.19.57,2.5.57,3.94v16.47c0,.36-.18.54-.54.54h-6.48Z"/>
      <path d="M2366.81,531.53c1.55-3.2,2.75-6.7,3.59-10.48.85-3.78,1.27-7.52,1.27-11.23s-.41-7.43-1.24-11.18c-.83-3.74-2.04-7.25-3.62-10.53-.18-.36-.07-.54.32-.54h3.89c.32,0,.61.18.86.54,2.38,3.28,4.13,6.79,5.27,10.53,1.13,3.74,1.7,7.47,1.7,11.18s-.57,7.43-1.7,11.18c-1.13,3.74-2.89,7.25-5.27,10.53-.25.36-.54.54-.86.54h-3.89c-.4,0-.5-.18-.32-.54h0Z"/>
    </g>
    <g>
      <path d="M2302.41,1280.39c-3.2,0-6-.74-8.4-2.21-2.39-1.48-4.06-3.71-5-6.7-.22-.65-.39-1.28-.51-1.89s-.22-1.3-.3-2.05c-.07-.76-.13-1.62-.16-2.59-.04-.97-.05-2.14-.05-3.51s.02-2.54.05-3.51.09-1.84.16-2.59.17-1.44.3-2.05c.13-.61.3-1.24.51-1.89.94-2.95,2.6-5.17,5-6.67,2.39-1.49,5.19-2.24,8.4-2.24s6,.75,8.4,2.24c2.39,1.49,4.06,3.72,5,6.67.22.65.39,1.28.51,1.89.13.61.22,1.3.3,2.05.07.76.13,1.62.16,2.59.04.97.05,2.14.05,3.51s-.02,2.54-.05,3.51c-.04.97-.09,1.84-.16,2.59-.07.76-.17,1.44-.3,2.05-.13.61-.3,1.24-.51,1.89-.94,2.99-2.6,5.22-5,6.7-2.39,1.48-5.19,2.21-8.4,2.21ZM2302.41,1273.37c1.51,0,2.75-.36,3.73-1.08.97-.72,1.66-1.71,2.05-2.97.11-.32.2-.69.27-1.11s.14-.92.19-1.51.09-1.32.11-2.19.03-1.89.03-3.08,0-2.21-.03-3.08c-.02-.86-.05-1.59-.11-2.19-.05-.59-.12-1.1-.19-1.51-.07-.41-.16-.78-.27-1.11-.4-1.26-1.08-2.25-2.05-2.97s-2.21-1.08-3.73-1.08-2.75.36-3.73,1.08c-.97.72-1.66,1.71-2.05,2.97-.11.32-.2.69-.27,1.11s-.13.92-.19,1.51c-.05.59-.09,1.32-.11,2.19-.02.86-.03,1.89-.03,3.08s0,2.21.03,3.08c.02.86.05,1.59.11,2.19.05.59.12,1.1.19,1.51.07.41.16.78.27,1.11.4,1.26,1.08,2.25,2.05,2.97s2.21,1.08,3.73,1.08Z"/>
      <path d="M2328.23,1283.79c-2.38-3.28-4.13-6.79-5.26-10.53-1.13-3.74-1.7-7.47-1.7-11.18s.57-7.43,1.7-11.18c1.13-3.74,2.89-7.25,5.26-10.53.25-.36.54-.54.86-.54h3.89c.4,0,.5.18.32.54-1.58,3.28-2.79,6.79-3.62,10.53-.83,3.75-1.24,7.47-1.24,11.18s.42,7.45,1.27,11.23c.84,3.78,2.04,7.27,3.59,10.48.18.36.07.54-.32.54h-3.89c-.32,0-.61-.18-.86-.54h0Z"/>
      <path d="M2353.06,1279.79c-.36,0-.54-.18-.54-.54v-15.05c0-1.44-.33-2.6-1-3.46-.67-.87-1.68-1.3-3.05-1.3s-2.3.43-3.02,1.3-1.08,2.02-1.08,3.46v15.05c0,.36-.18.54-.54.54h-6.48c-.36,0-.54-.18-.54-.54v-25.06c0-.36.18-.54.54-.54h6.48c.36,0,.54.18.54.54v1.84h.05c.61-.83,1.47-1.53,2.56-2.11,1.1-.58,2.49-.86,4.19-.86,1.44,0,2.72.23,3.83.7,1.12.47,2.05,1.13,2.81,2s1.32,1.89,1.7,3.08.57,2.5.57,3.94v16.47c0,.36-.18.54-.54.54h-6.48Z"/>
      <path d="M2363.5,1283.79c1.55-3.21,2.75-6.7,3.59-10.48.85-3.78,1.27-7.52,1.27-11.23s-.41-7.43-1.24-11.18c-.83-3.74-2.03-7.25-3.62-10.53-.18-.36-.07-.54.32-.54h3.89c.32,0,.61.18.86.54,2.38,3.28,4.13,6.79,5.26,10.53,1.13,3.75,1.7,7.47,1.7,11.18s-.57,7.43-1.7,11.18c-1.13,3.74-2.89,7.25-5.26,10.53-.25.36-.54.54-.86.54h-3.89c-.4,0-.5-.18-.32-.54h0Z"/>
    </g>
    <g>
      <path d="M2219.63,1409.13c-3.2,0-6-.74-8.4-2.21-2.39-1.48-4.06-3.71-5-6.7-.22-.65-.39-1.28-.51-1.89-.13-.61-.22-1.3-.3-2.05s-.13-1.62-.16-2.59-.05-2.14-.05-3.51.02-2.54.05-3.51c.04-.97.09-1.84.16-2.59s.17-1.44.3-2.05c.13-.61.3-1.24.51-1.89.94-2.95,2.6-5.17,5-6.67,2.39-1.49,5.19-2.24,8.4-2.24s6,.75,8.4,2.24c2.39,1.5,4.06,3.72,5,6.67.22.65.39,1.28.51,1.89.13.61.22,1.3.3,2.05.07.76.13,1.62.16,2.59.04.97.05,2.14.05,3.51s-.02,2.54-.05,3.51c-.04.97-.09,1.84-.16,2.59-.07.76-.17,1.44-.3,2.05-.13.61-.3,1.24-.51,1.89-.94,2.99-2.6,5.22-5,6.7-2.39,1.48-5.19,2.21-8.4,2.21ZM2219.63,1402.11c1.51,0,2.75-.36,3.73-1.08.97-.72,1.66-1.71,2.05-2.97.11-.32.2-.69.27-1.11.07-.41.14-.92.19-1.51s.09-1.32.11-2.19c.02-.86.03-1.89.03-3.08s0-2.21-.03-3.08c-.02-.86-.05-1.59-.11-2.19-.05-.59-.12-1.1-.19-1.51-.07-.41-.16-.78-.27-1.11-.4-1.26-1.08-2.25-2.05-2.97s-2.21-1.08-3.73-1.08-2.75.36-3.73,1.08c-.97.72-1.66,1.71-2.05,2.97-.11.32-.2.69-.27,1.11-.07.41-.13.92-.19,1.51-.05.59-.09,1.32-.11,2.19-.02.86-.03,1.89-.03,3.08s0,2.21.03,3.08c.02.86.05,1.59.11,2.19.05.59.12,1.1.19,1.51.07.41.16.78.27,1.11.4,1.26,1.08,2.25,2.05,2.97s2.21,1.08,3.73,1.08Z"/>
      <path d="M2245.45,1412.53c-2.38-3.28-4.13-6.79-5.26-10.53-1.13-3.74-1.7-7.47-1.7-11.18s.57-7.43,1.7-11.18c1.13-3.74,2.89-7.25,5.26-10.53.25-.36.54-.54.86-.54h3.89c.4,0,.5.18.32.54-1.58,3.28-2.79,6.79-3.62,10.53s-1.24,7.47-1.24,11.18.42,7.45,1.27,11.23c.84,3.78,2.04,7.27,3.59,10.48.18.36.07.54-.32.54h-3.89c-.32,0-.61-.18-.86-.54h0Z"/>
      <path d="M2262.22,1408.86c-2.92,0-5-.66-6.24-1.97-1.24-1.31-1.86-3.43-1.86-6.35v-28.19c0-.36.18-.54.54-.54h6.48c.36,0,.54.18.54.54v27.64c0,.9.18,1.54.54,1.92s.94.57,1.73.57h1.13c.36,0,.54.18.54.54v5.3c0,.36-.18.54-.54.54h-2.86,0Z"/>
      <path d="M2280.65,1409.13c-2.77,0-5.17-.63-7.18-1.89-2.02-1.26-3.4-3.08-4.16-5.45-.29-.94-.5-1.9-.65-2.89-.14-.99-.22-2.13-.22-3.43s.07-2.44.22-3.43c.14-.99.36-1.95.65-2.89.76-2.38,2.14-4.19,4.16-5.45s4.41-1.89,7.18-1.89,5.17.63,7.18,1.89c2.02,1.26,3.4,3.08,4.16,5.45.29.94.5,1.9.65,2.89.14.99.22,2.13.22,3.43s-.07,2.44-.22,3.43-.36,1.95-.65,2.89c-.76,2.38-2.14,4.19-4.16,5.45s-4.41,1.89-7.18,1.89ZM2280.65,1402.76c2.09,0,3.44-.94,4.05-2.81.18-.61.31-1.23.38-1.86.07-.63.11-1.5.11-2.62s-.04-1.99-.11-2.62-.2-1.25-.38-1.86c-.61-1.87-1.96-2.81-4.05-2.81s-3.44.94-4.05,2.81c-.18.61-.31,1.23-.38,1.86s-.11,1.5-.11,2.62.04,1.99.11,2.62.2,1.25.38,1.86c.61,1.87,1.96,2.81,4.05,2.81Z"/>
      <path d="M2307.25,1418.85c-.97,0-1.94-.1-2.92-.3-.97-.2-1.9-.47-2.78-.81-.88-.34-1.68-.76-2.4-1.24-.72-.49-1.32-1.02-1.78-1.59-.22-.29-.2-.56.05-.81l3.83-3.89c.25-.25.52-.25.81,0,.83.72,1.67,1.28,2.54,1.67.86.4,1.82.59,2.86.59,1.84,0,3.17-.48,4-1.43.83-.96,1.24-2.4,1.24-4.35v-2.21h-.05c-.58.94-1.42,1.67-2.54,2.21-1.12.54-2.5.81-4.16.81-2.16,0-3.99-.53-5.48-1.59-1.49-1.06-2.58-2.64-3.27-4.72-.29-.97-.5-1.95-.65-2.94-.14-.99-.22-2.19-.22-3.59s.07-2.61.22-3.62c.14-1.01.36-1.98.65-2.92.68-2.09,1.77-3.66,3.27-4.72,1.49-1.06,3.32-1.59,5.48-1.59,1.66,0,3.04.27,4.16.81,1.12.54,1.96,1.28,2.54,2.21h.05v-1.89c0-.36.18-.54.54-.54h6.48c.36,0,.54.18.54.54v22.79c0,8.75-4.34,13.12-13.01,13.12h0ZM2308.33,1401.14c1.04,0,1.88-.23,2.51-.7s1.09-1.17,1.38-2.11c.18-.5.31-1.03.38-1.59.07-.56.11-1.25.11-2.08s-.04-1.52-.11-2.08c-.07-.56-.2-1.09-.38-1.59-.29-.94-.75-1.64-1.38-2.11s-1.47-.7-2.51-.7-1.87.23-2.48.7-1.08,1.17-1.4,2.11c-.14.5-.25,1.04-.32,1.59-.07.56-.11,1.25-.11,2.08s.04,1.52.11,2.08c.07.56.18,1.09.32,1.59.32.94.79,1.64,1.4,2.11s1.44.7,2.48.7Z"/>
      <path d="M2356.07,1408.54c-.36,0-.54-.18-.54-.54v-15.05c0-1.44-.33-2.6-1-3.47s-1.68-1.3-3.05-1.3-2.3.43-3.02,1.3-1.08,2.02-1.08,3.47v15.05c0,.36-.18.54-.54.54h-6.48c-.36,0-.54-.18-.54-.54v-25.06c0-.36.18-.54.54-.54h6.48c.36,0,.54.18.54.54v1.84h.05c.61-.83,1.47-1.53,2.56-2.11,1.1-.58,2.49-.86,4.19-.86,1.44,0,2.72.23,3.83.7,1.12.47,2.05,1.13,2.81,2,.76.86,1.32,1.89,1.7,3.08s.57,2.5.57,3.94v16.47c0,.36-.18.54-.54.54h-6.48Z"/>
      <path d="M2366.51,1412.53c1.55-3.2,2.75-6.7,3.59-10.48.85-3.78,1.27-7.52,1.27-11.23s-.41-7.43-1.24-11.18-2.03-7.25-3.62-10.53c-.18-.36-.07-.54.32-.54h3.89c.32,0,.61.18.86.54,2.38,3.28,4.13,6.79,5.26,10.53,1.13,3.74,1.7,7.47,1.7,11.18s-.57,7.43-1.7,11.18-2.89,7.25-5.26,10.53c-.25.36-.54.54-.86.54h-3.89c-.4,0-.5-.18-.32-.54h0Z"/>
    </g>
    <g>
      <path d="M2307.66,1520.08c-3.21,0-6-.74-8.4-2.21-2.39-1.48-4.06-3.71-5-6.7-.22-.65-.39-1.28-.51-1.89-.13-.61-.23-1.3-.3-2.05-.07-.76-.13-1.62-.16-2.59-.04-.97-.05-2.14-.05-3.51s.02-2.54.05-3.51c.04-.97.09-1.84.16-2.59.07-.76.17-1.44.3-2.05.13-.61.3-1.24.51-1.89.94-2.95,2.6-5.17,5-6.67,2.39-1.49,5.19-2.24,8.4-2.24s6,.75,8.4,2.24c2.39,1.49,4.06,3.72,5,6.67.22.65.39,1.28.51,1.89.13.61.22,1.3.3,2.05.07.76.12,1.62.16,2.59s.05,2.14.05,3.51-.02,2.54-.05,3.51c-.04.97-.09,1.84-.16,2.59-.07.76-.17,1.44-.3,2.05s-.3,1.24-.51,1.89c-.94,2.99-2.6,5.22-5,6.7-2.39,1.48-5.19,2.21-8.4,2.21ZM2307.66,1513.06c1.51,0,2.75-.36,3.73-1.08s1.66-1.71,2.05-2.97c.11-.32.2-.69.27-1.11.07-.41.13-.92.19-1.51.05-.59.09-1.32.11-2.19.02-.86.03-1.89.03-3.08s0-2.21-.03-3.08c-.02-.86-.05-1.59-.11-2.19-.05-.59-.12-1.1-.19-1.51-.07-.41-.16-.78-.27-1.11-.4-1.26-1.08-2.25-2.05-2.97s-2.21-1.08-3.73-1.08-2.75.36-3.73,1.08c-.97.72-1.66,1.71-2.05,2.97-.11.32-.2.69-.27,1.11s-.14.92-.19,1.51-.09,1.32-.11,2.19c-.02.86-.03,1.89-.03,3.08s0,2.21.03,3.08.05,1.59.11,2.19c.05.59.12,1.1.19,1.51.07.41.16.78.27,1.11.4,1.26,1.08,2.25,2.05,2.97s2.21,1.08,3.73,1.08Z"/>
      <path d="M2333.48,1523.48c-2.38-3.28-4.13-6.79-5.27-10.53s-1.7-7.47-1.7-11.18.57-7.43,1.7-11.18c1.13-3.74,2.89-7.25,5.27-10.53.25-.36.54-.54.86-.54h3.89c.4,0,.5.18.32.54-1.58,3.28-2.79,6.79-3.62,10.53-.83,3.75-1.24,7.47-1.24,11.18s.42,7.45,1.27,11.23,2.04,7.27,3.59,10.48c.18.36.07.54-.32.54h-3.89c-.32,0-.61-.18-.86-.54h0Z"/>
      <path d="M2349.59,1491.29h-.11l-5.83,4c-.4.25-.59.14-.59-.32v-6.7c0-.29.13-.54.38-.76l6.16-4.43c.25-.22.58-.32.97-.32h6.05c.36,0,.54.18.54.54v35.64c0,.36-.18.54-.54.54h-6.48c-.36,0-.54-.18-.54-.54v-27.65h0Z"/>
      <path d="M2363.79,1523.48c1.55-3.21,2.74-6.7,3.59-10.48s1.27-7.52,1.27-11.23-.41-7.43-1.24-11.18c-.83-3.74-2.04-7.25-3.62-10.53-.18-.36-.07-.54.32-.54h3.89c.32,0,.61.18.86.54,2.38,3.28,4.13,6.79,5.26,10.53,1.13,3.75,1.7,7.47,1.7,11.18s-.57,7.43-1.7,11.18-2.89,7.25-5.26,10.53c-.25.36-.54.54-.86.54h-3.89c-.4,0-.5-.18-.32-.54h0Z"/>
    </g>
    <g>
      <path d="M1118.28,1484.04h20.43v3.82h-15.92v11.11h13.43v3.82h-13.43v12.88h16.46v3.82h-20.97v-35.44h0Z"/>
      <path d="M1142.78,1484.04h4.51v31.62h15.47v3.82h-19.98v-35.44Z"/>
      <path d="M1165.69,1484.04h20.43v3.82h-15.92v11.11h13.43v3.82h-13.43v12.88h16.46v3.82h-20.97v-35.44h0Z"/>
      <path d="M1190.18,1484.04h5.43l6.79,18.94c.85,2.42,1.67,4.92,2.52,7.38h.22c.85-2.46,1.6-4.96,2.45-7.38l6.71-18.94h5.43v35.44h-4.19v-19.51c0-3.09.35-7.35.57-10.48h-.22l-2.81,8.08-6.68,18.33h-2.99l-6.71-18.33-2.81-8.08h-.22c.23,3.13.57,7.39.57,10.48v19.51h-4.08v-35.44h.02Z"/>
      <path d="M1226.13,1484.04h20.43v3.82h-15.92v11.11h13.43v3.82h-13.43v12.88h16.46v3.82h-20.97v-35.44h0Z"/>
      <path d="M1250.62,1484.04h4.66l12.83,22.28,3.83,7.34h.22c-.23-3.58-.57-7.57-.57-11.28v-18.34h4.28v35.44h-4.66l-12.83-22.3-3.83-7.32h-.22c.23,3.59.57,7.37.57,11.07v18.55h-4.28v-35.44Z"/>
      <path d="M1289.6,1487.86h-10.72v-3.82h25.95v3.82h-10.72v31.62h-4.51v-31.62Z"/>
      <path d="M1305.24,1514.87l2.7-3.1c2.55,2.65,6.09,4.39,9.78,4.39,4.65,0,7.41-2.32,7.41-5.76,0-3.62-2.57-4.77-5.91-6.24l-5.09-2.25c-3.3-1.41-7.18-3.91-7.18-9.13s4.72-9.41,11.16-9.41c4.2,0,7.95,1.82,10.44,4.39l-2.39,2.9c-2.17-2.05-4.77-3.32-8.04-3.32-3.97,0-6.61,2-6.61,5.17,0,3.41,3.09,4.69,5.87,5.87l5.05,2.19c4.1,1.76,7.3,4.21,7.3,9.48,0,5.6-4.63,10.07-12.08,10.07-4.97,0-9.3-2.03-12.4-5.26h-.01Z"/>
    </g>
    <g>
      <path d="M60.61,903.92c-11.35,0-18.24-6.25-18.24-15.15s6.91-15.15,18.24-15.15,18.5,6.25,18.5,15.15-7.15,15.15-18.5,15.15ZM60.61,878.28c-8.83,0-14.28,4.16-14.28,10.49s5.45,10.49,14.28,10.49,14.53-4.16,14.53-10.49-5.7-10.49-14.53-10.49Z"/>
      <path d="M43.01,869.06v-10.12c0-7.94,2.67-13.3,10.44-13.3s10.95,5.33,10.95,13.08v5.83h14.06v4.51h-35.45,0ZM60.74,859.29c0-6.2-2.25-9.15-7.29-9.15s-6.78,3.14-6.78,9.37v5.04h14.07v-5.26h0Z"/>
      <path d="M43.01,842.25v-20.43h3.82v15.92h11.11v-13.43h3.82v13.43h12.88v-16.46h3.82v20.97h-35.45Z"/>
      <path d="M43.01,817.76v-11.1c0-7.22,2.59-12.4,9.97-12.4s10.49,5.18,10.49,12.4v6.59h14.98v4.51h-35.44ZM59.82,807.31c0-5.52-2.23-8.55-6.83-8.55s-6.32,3.04-6.32,8.55v5.94h13.14v-5.94h.01ZM62.24,807.55l-2.33-3.53,18.55-10.81v5.11l-16.22,9.23h0Z"/>
      <path d="M43.01,780.45v-5.09l35.44-11.99v4.78l-19.79,6.18c-3.96,1.27-7.85,2.41-11.94,3.55v.22c4.11,1.1,7.98,2.23,11.94,3.51l19.79,6.25v4.59l-35.44-11.99h0ZM64.06,786.14v-16.32h3.6v16.32h-3.6Z"/>
      <path d="M46.83,757.38v10.72h-3.82v-25.95h3.82v10.72h31.62v4.51h-31.62Z"/>
      <path d="M43.01,739.17v-4.51h35.44v4.51h-35.44Z"/>
      <path d="M60.61,730.17c-11.35,0-18.24-6.25-18.24-15.15s6.91-15.15,18.24-15.15,18.5,6.25,18.5,15.15-7.15,15.15-18.5,15.15ZM60.61,704.53c-8.83,0-14.28,4.16-14.28,10.49s5.45,10.49,14.28,10.49,14.53-4.16,14.53-10.49-5.7-10.49-14.53-10.49Z"/>
      <path d="M43.01,695.3v-4.66l22.28-12.83,7.34-3.83v-.22c-3.58.23-7.57.57-11.28.57h-18.34v-4.28h35.44v4.66l-22.3,12.83-7.32,3.83v.22c3.59-.23,7.37-.57,11.07-.57h18.55v4.28h-35.44Z"/>
      <path d="M73.84,666.56l-3.1-2.7c2.65-2.55,4.39-6.09,4.39-9.78,0-4.65-2.32-7.41-5.76-7.41-3.62,0-4.77,2.57-6.24,5.91l-2.25,5.09c-1.41,3.3-3.91,7.18-9.13,7.18s-9.41-4.72-9.41-11.16c0-4.2,1.82-7.95,4.39-10.44l2.9,2.39c-2.05,2.17-3.32,4.77-3.32,8.04,0,3.97,2,6.61,5.17,6.61,3.41,0,4.69-3.09,5.87-5.87l2.19-5.05c1.76-4.1,4.21-7.3,9.48-7.3,5.6,0,10.07,4.63,10.07,12.08,0,4.97-2.03,9.3-5.26,12.4h.01Z"/>
    </g>
    <g>
      <g>
        <rect class="st5" x="990.74" y="17.28" width="57.42" height="57.42"/>
        <path d="M1016.35,28.18c.11-.36.34-.54.7-.54h4.97c.36,0,.59.18.7.54l12.42,35.64c.11.36-.02.54-.38.54h-5.29c-.36,0-.59-.18-.7-.54l-2.43-7.13h-13.82l-2.43,7.13c-.11.36-.34.54-.7.54h-5.24c-.36,0-.49-.18-.38-.54l12.58-35.64ZM1024.39,51.02l-4.86-14.26h-.16l-4.91,14.26h9.94s-.01,0-.01,0Z"/>
      </g>
      <g>
        <rect class="st0" x="1072.56" y="17.28" width="57.42" height="57.42"/>
        <path d="M1088.93,28.18c0-.36.18-.54.54-.54h13.66c3.89,0,6.77.89,8.64,2.67s2.81,4.15,2.81,7.1c0,2.09-.42,3.75-1.27,4.99s-1.84,2.17-3,2.78v.11c.58.22,1.15.56,1.73,1.03.58.47,1.1,1.05,1.57,1.76.47.7.86,1.51,1.16,2.43s.46,1.94.46,3.05c0,3.67-1.1,6.39-3.29,8.15-2.2,1.76-5.31,2.65-9.34,2.65h-13.12c-.36,0-.54-.18-.54-.54V28.18h-.01ZM1102.97,42.92c1.62,0,2.9-.44,3.83-1.32.94-.88,1.4-2.04,1.4-3.48s-.47-2.65-1.4-3.54c-.94-.88-2.21-1.32-3.83-1.32h-7.34c-.22,0-.32.11-.32.32v9.02c0,.22.11.32.32.32h7.34ZM1095.3,58.42c0,.22.11.32.32.32h7.67c1.8,0,3.18-.47,4.13-1.4.95-.94,1.43-2.18,1.43-3.73s-.48-2.74-1.43-3.67c-.95-.94-2.33-1.4-4.13-1.4h-7.67c-.22,0-.32.11-.32.32v9.56Z"/>
      </g>
      <g>
        <rect class="st2" x="1154.38" y="17.28" width="57.42" height="57.42"/>
        <path d="M1171.51,55.93c-.18-.58-.33-1.14-.46-1.7s-.23-1.21-.3-1.94c-.07-.74-.13-1.6-.16-2.59-.04-.99-.05-2.22-.05-3.7s.02-2.66.05-3.67c.04-1.01.09-1.88.16-2.62.07-.74.17-1.39.3-1.94.12-.56.28-1.12.46-1.7.94-3.02,2.51-5.28,4.72-6.78,2.21-1.49,4.89-2.24,8.02-2.24,2.95,0,5.5.7,7.64,2.11,2.14,1.4,3.73,3.33,4.78,5.78.11.32.02.54-.27.65l-4.59,2.21c-.32.18-.56.09-.7-.27-.61-1.3-1.45-2.41-2.51-3.35s-2.51-1.4-4.35-1.4-3.18.43-4.24,1.3c-1.06.86-1.85,2.05-2.35,3.56-.11.4-.21.79-.3,1.19-.09.4-.16.91-.22,1.54-.05.63-.09,1.4-.11,2.29-.02.9-.03,2.02-.03,3.35s0,2.49.03,3.38c.02.88.05,1.64.11,2.27s.13,1.15.22,1.57c.09.41.19.8.3,1.16.5,1.51,1.29,2.7,2.35,3.56,1.06.86,2.47,1.3,4.24,1.3s3.29-.47,4.35-1.4c1.06-.94,1.9-2.05,2.51-3.35.14-.36.38-.45.7-.27l4.59,2.21c.29.11.38.32.27.65-1.04,2.45-2.64,4.37-4.78,5.78-2.14,1.4-4.69,2.11-7.64,2.11-3.13,0-5.8-.75-8.02-2.24-2.21-1.49-3.79-3.75-4.72-6.78v-.03Z"/>
      </g>
      <g>
        <rect class="st3" x="1236.2" y="17.28" width="57.42" height="57.42"/>
        <path d="M1252.08,28.18c0-.36.18-.54.54-.54h13.15c6.42,0,10.51,2.72,12.28,8.15.14.47.27.96.38,1.48s.21,1.16.3,1.92c.09.76.15,1.68.19,2.78s.05,2.44.05,4.02-.02,2.93-.05,4.02c-.04,1.1-.1,2.02-.19,2.78s-.19,1.4-.3,1.92c-.11.52-.23,1.02-.38,1.49-1.77,5.44-5.86,8.15-12.28,8.15h-13.15c-.36,0-.54-.18-.54-.54V28.18ZM1258.46,58.31c0,.22.11.32.32.32h5.45c2.05,0,3.7-.36,4.94-1.08s2.13-1.91,2.67-3.56c.11-.25.2-.57.27-.94.07-.38.13-.86.19-1.46.05-.59.1-1.34.13-2.24.04-.9.05-2.02.05-3.35s-.02-2.45-.05-3.35c-.04-.9-.08-1.66-.13-2.27s-.12-1.1-.19-1.46-.16-.67-.27-.92c-.54-1.66-1.43-2.84-2.67-3.56s-2.89-1.08-4.94-1.08h-5.45c-.22,0-.32.11-.32.32v24.62h0Z"/>
      </g>
      <g>
        <rect class="st4" x="1318.02" y="17.28" width="57.42" height="57.42"/>
        <path d="M1335.39,28.18c0-.36.18-.54.54-.54h23c.36,0,.54.18.54.54v4.64c0,.36-.18.54-.54.54h-16.85c-.22,0-.32.11-.32.32v8.96c0,.22.11.32.32.32h14.2c.36,0,.54.18.54.54v4.64c0,.36-.18.54-.54.54h-14.2c-.22,0-.32.11-.32.32v9.29c0,.22.11.32.32.32h16.85c.36,0,.54.18.54.54v4.64c0,.36-.18.54-.54.54h-23c-.36,0-.54-.18-.54-.54V28.18Z"/>
      </g>
      <g>
        <rect class="st1" x="1399.84" y="17.28" width="57.42" height="57.42"/>
        <path d="M1417.45,28.18c0-.36.18-.54.54-.54h23c.36,0,.54.18.54.54v4.64c0,.36-.18.54-.54.54h-16.85c-.22,0-.32.11-.32.32v9.34c0,.22.11.32.32.32h14.2c.36,0,.54.18.54.54v4.64c0,.36-.18.54-.54.54h-14.2c-.22,0-.32.11-.32.32v14.42c0,.36-.18.54-.54.54h-5.29c-.36,0-.54-.18-.54-.54V28.18Z"/>
      </g>
    </g>
  </g>
</svg>