<?xml version="1.0" encoding="UTF-8"?>
<svg id="Calque_1" xmlns="http://www.w3.org/2000/svg" version="1.1" viewBox="0 0 845.4 507.98">
  <!-- Generator: Adobe Illustrator 29.6.1, SVG Export Plug-In . SVG Version: 2.1.1 Build 9)  -->
  <defs>
    <style>
      .st0 {
        fill: #009245;
      }

      .st1 {
        fill: #fcee21;
      }

      .st2 {
        fill: #8cc63f;
      }

      .st3 {
        fill: #fff;
      }

      .st4 {
        fill: #39b54a;
      }

      .st5 {
        fill: #f7931e;
      }

      .st6 {
        fill: red;
      }
    </style>
  </defs>
  <rect class="st3" width="845.4" height="507.98"/>
  <g id="Calque_3">
    <g>
      <path class="st0" d="M189.43,171.86c16.51-2.83,20.96,21.91,5.1,24.5-18.06,2.96-20.08-21.94-5.1-24.5ZM190.26,181c-3.92,1.3-.74,9.36,4.09,5.95,2.37-1.67,1.12-7.68-4.09-5.95Z"/>
      <path class="st0" d="M183.5,314.18c12.28-10.29,28.78,7.83,17.3,18.68-12.85,12.15-29.74-8.27-17.3-18.68ZM188.88,321.41c-3.62,5.68,8.21,8.28,6.19,1.44-.82-2.76-5.21-2.97-6.19-1.44Z"/>
      <path class="st0" d="M262.64,465.36v-100.67h3.7l.86-7.91,5.41-.34v-10.01h-95.62c-5.25-2.25-8.44-6.88-8.6-12.64l.75-163.73c2.88-6.3,6.64-8.89,13.57-9.52,29.13,1.71,59.66.21,89.9-.67v-8.68l-2.59.16v-8.32h-3.69V42.81c0-.5,5.39-3.29,6.68-7.18,6.58-19.98-26.19-22.46-23.25-2.13.82,5.69,7.33,8.69,7.33,9.3v100.21h-3.7v8.31l-6.52-.41-.86-7.92h-3.7v-33.24c0-.46,4.37-.69,6.63-5.83,7.94-18.03-21.94-24.37-23.22-5.61-.53,7.6,4.23,8.16,7.48,11.88.97,1.12-.12,1.56-.12,1.87v30.94h-3.7l.93,8.3-6.85.03-.53-8.33h-3.7v-43.86l-26.31-18.94-.49-10.42c7.8-4.04,10.89-14.36,3.74-20.54-13.73-11.86-29.42,11.08-13.11,20.49l.6,15.1,26.33,18.92v39.25h-3.7v8.32h-6.85l-.53-8.32h-3.7v-21.7l-31.86-21.71c-.76-1.26-.81-9.01-.31-10.46.91-2.68,9.28-4.58,7.8-13.57-3.69-22.34-40.2-3.42-17.17,12.68l.44,15.98,31.87,21.7v17.09h-3.7l-.04,8.28c-12.47.64-22.96,10.5-23.05,23.13h-8.31v3.69h-17.55l-20.5-32.13-15.83-.34c-7.63-13.81-28.08-6.2-22.99,9.14,3.52,10.61,18.19,9.86,22.99.4l11.21.05,20.5,32.13h22.17v3.7h8.31l-.41,6.52-7.92.86v3.7h-39.24l-18.2-26.58-15.78-.18c-4.44-8.7-17.18-10.59-21.87-1.41-7.89,15.43,14.03,26.01,21.87,10.61h10.7l17.28,25.88h45.26v3.7h8.32v6.85l-8.32.53v3.7h-33.24c-.16,0-.24-1.76-1.32-2.8-13.96-13.37-28.46,5.63-18.07,16.19,4.62,4.7,13.69,4.44,17.96-.52,1.12-1.3,1.23-3.64,1.43-3.64h33.25v3.7h8.32v6.85l-8.32.53v3.7H50.21c-.56,0-1.48-6.42-7.91-7.32-19.02-2.67-19.56,22.12-4.47,23.93,8.34,1,12.06-7.37,12.84-7.37h100.21v3.7h8.32v5.93l-8.32.53v3.7h-61.87c-.4,0-.32-3.94-4.71-5.89-10-4.45-19.25,2.88-17.4,13.71,1.35,7.9,10.99,10.94,17.74,7.68,2.51-1.21,5.33-6.25,5.75-6.25h60.5v3.7h8.32v6.85l-8.32.53v3.7h-40.17l-18.19,28.44c-1.09.64-23.74.44-25.27-.21-1.87-.79-2.58-3.49-4.69-5.01-14.41-10.28-28.25,11.42-13.59,20.05,7.08,4.17,14.16.39,17.6-6.35l31.02.03,17.74-27.73h35.56v3.7h8.31l-.41,6.52-7.92.86v3.7h-21.7l-18.92,31.87-16.91.47c-4.82-9.35-17.92-9.86-22.36-.03-6.78,15.03,16.19,24.42,22.32,9.21l21.56-.42,19.85-32.8h16.16v3.7h8.31c-.39,12.1,8.24,22.26,20.22,24.1l.08,8.23h3.7v17.54l-32.13,20.5-.34,15.83c-18.99,10.64,2.43,34.51,14,19.54,5.94-7.68,1.93-14.24-4.42-19.58l-.05-11.21,32.18-20.46v-22.17h3.7v-8.32h5.93l.53,8.32h3.7v40.63l-25.66,16.82-.18,15.78c-14.75,7.28-5.8,28.82,9.46,22.59,10.06-4.1,9.12-17.9-.25-22.59v-10.7l25.88-17.27v-45.26h3.7l.86-7.91,6.53-.41v8.32h3.69v33.25c0,.45-5.22,2.15-6.69,5.77-7.19,17.71,21.35,24.54,23.26,6.59.96-9.13-7.32-12.05-7.32-12.83v-32.79h3.7v-8.32h6.47c-.02,4.3-.92,8.24,4.18,9.18l-.44,100.09c-13.06,7.02-6.78,25,7.74,22.75,8.55-1.33,11.96-11.88,6.99-18.88-1.73-2.43-5.55-3.8-5.55-4.16l-.05-.06.03.07ZM260.43,28.58c3.99-1.27,5.46,3.46,3.19,5.05-4.01,2.81-6.73-3.92-3.19-5.05ZM235.95,96.01c1.95-1.37,7.03,1.75,5.03,4.56-2.79,3.93-8.81-1.91-5.03-4.56ZM190.47,60.7c-3.41,2.13-7.82-2.67-4.54-5.02,3.57-2.54,7.22,3.33,4.54,5.02ZM156.52,80.12c-3.08-2.17,1.15-8.47,4.29-5.23,3.18,3.29-2.15,6.73-4.29,5.23ZM87.21,152.78c-4.01,2.81-6.73-3.92-3.19-5.05,3.99-1.27,5.46,3.46,3.19,5.05ZM68.55,182.62c-3.41,2.13-7.82-2.67-4.54-5.02,3.57-2.54,7.22,3.33,4.54,5.02ZM109.19,232.49c-3.99,2.49-7.27-3.32-4.4-5.32,2.92-2.05,7.31,3.5,4.4,5.32ZM36.76,255.76c-2.72-3.85,3.83-6.62,5.05-4.59,2.06,3.45-2.72,7.88-5.05,4.59ZM76.28,279.5c-3.31-3.31,3.32-7.34,5.24-4.31,1.74,2.76-2.7,6.83-5.24,4.31ZM53.06,332.27c-.42-.29-1.42-4.65-.92-5.36,8.75-4.23,5.79,8.62.92,5.36ZM84.14,359.85c-2.76,2.87-8.18-2.49-3.45-4.9,3.14-1.6,5.89,2.36,3.45,4.9ZM152.73,433.03l.86-5.14,4.28.47v3.81l-5.14.86h0ZM187.42,451.56l-4.28.47-.86-5.14,5.14.86v3.81h0ZM236.83,411.38c-4.01,2.81-6.73-3.92-3.19-5.05,3.99-1.27,5.46,3.46,3.19,5.05ZM256.28,479.1c-2.12-1.32-.23-8.1,4.36-5.28,2.96,1.81-.32,7.81-4.36,5.28Z"/>
      <path class="st0" d="M272.61,290.8h-47.84v-72.5l1.39-1.39h46.46v-9.91c-15.84.39-32.34,1.79-47.16.9-5.43,1.01-9.21,4.86-9.94,10.38,1.63,22.59-2.1,48.01-.02,70.25.55,5.9,3.72,10.5,9.72,11.53,15.15-1.08,31.5.15,47.4.55v-9.81h-.01Z"/>
    </g>
  </g>
  <g id="Calque_5">
    <g>
      <polygon class="st0" points="430.92 112.39 284.93 112.39 284.93 50.52 430.92 50.52 462.4 81.45 430.92 112.39"/>
      <polygon class="st4" points="501.17 182.4 284.93 182.4 284.93 120.53 501.17 120.53 532.65 151.47 501.17 182.4"/>
      <polygon class="st2" points="571.72 253.2 284.93 253.2 284.93 191.33 571.72 191.33 603.2 222.27 571.72 253.2"/>
      <polygon class="st1" points="642.59 323.34 284.93 323.34 284.93 261.48 642.59 261.48 674.07 292.41 642.59 323.34"/>
      <polygon class="st5" points="712.68 394.27 284.93 394.27 284.93 332.41 712.68 332.41 744.16 363.34 712.68 394.27"/>
      <polygon class="st6" points="783.2 464.76 284.93 464.76 284.93 402.9 783.2 402.9 814.67 433.83 783.2 464.76"/>
      <path d="M412.58,63.15c.11-.36.34-.54.7-.54h4.97c.36,0,.59.18.7.54l12.42,35.64c.11.36-.02.54-.38.54h-5.29c-.36,0-.59-.18-.7-.54l-2.43-7.13h-13.82l-2.43,7.13c-.11.36-.34.54-.7.54h-5.24c-.36,0-.49-.18-.38-.54l12.58-35.64ZM420.63,85.99l-4.86-14.26h-.16l-4.91,14.26h9.94-.01Z"/>
      <path d="M473.6,133.65c0-.36.18-.54.54-.54h13.66c3.89,0,6.77.89,8.64,2.67,1.87,1.78,2.81,4.15,2.81,7.1,0,2.09-.42,3.75-1.27,4.99-.85,1.24-1.84,2.17-3,2.78v.11c.58.22,1.15.56,1.73,1.03.58.47,1.1,1.05,1.57,1.76.47.7.86,1.51,1.16,2.43s.46,1.94.46,3.05c0,3.67-1.1,6.39-3.29,8.15-2.2,1.76-5.31,2.65-9.34,2.65h-13.12c-.36,0-.54-.18-.54-.54v-35.64h-.01ZM487.64,148.39c1.62,0,2.9-.44,3.83-1.32.94-.88,1.4-2.04,1.4-3.48s-.47-2.65-1.4-3.54c-.94-.88-2.21-1.32-3.83-1.32h-7.34c-.22,0-.32.11-.32.32v9.02c0,.22.11.32.32.32h7.34ZM479.97,163.89c0,.22.11.32.32.32h7.67c1.8,0,3.18-.47,4.13-1.4.95-.94,1.43-2.18,1.43-3.73s-.48-2.74-1.43-3.67c-.95-.94-2.33-1.4-4.13-1.4h-7.67c-.22,0-.32.11-.32.32v9.56h0Z"/>
      <path d="M544.9,232.2c-.18-.58-.33-1.14-.46-1.7s-.23-1.21-.3-1.94c-.07-.74-.13-1.6-.16-2.59-.04-.99-.05-2.22-.05-3.7s.02-2.66.05-3.67c.04-1.01.09-1.88.16-2.62.07-.74.17-1.39.3-1.94.12-.56.28-1.12.46-1.7.94-3.02,2.51-5.28,4.72-6.78,2.21-1.49,4.89-2.24,8.02-2.24,2.95,0,5.5.7,7.64,2.11,2.14,1.4,3.73,3.33,4.78,5.78.11.32.02.54-.27.65l-4.59,2.21c-.32.18-.56.09-.7-.27-.61-1.3-1.45-2.41-2.51-3.35s-2.51-1.4-4.35-1.4-3.18.43-4.24,1.3c-1.06.86-1.85,2.05-2.35,3.56-.11.4-.21.79-.3,1.19-.09.4-.16.91-.22,1.54-.05.63-.09,1.4-.11,2.29-.02.9-.03,2.02-.03,3.35s0,2.49.03,3.38c.02.88.05,1.64.11,2.27s.13,1.15.22,1.57c.09.41.19.8.3,1.16.5,1.51,1.29,2.7,2.35,3.56s2.47,1.3,4.24,1.3,3.29-.47,4.35-1.4c1.06-.94,1.9-2.05,2.51-3.35.14-.36.38-.45.7-.27l4.59,2.21c.29.11.38.32.27.65-1.04,2.45-2.64,4.37-4.78,5.78-2.14,1.4-4.69,2.11-7.64,2.11-3.13,0-5.8-.75-8.02-2.24-2.21-1.49-3.79-3.75-4.72-6.78v-.03h0Z"/>
      <path d="M614.53,274.59c0-.36.18-.54.54-.54h13.15c6.42,0,10.51,2.72,12.28,8.15.14.47.27.96.38,1.48.11.52.21,1.16.3,1.92.09.76.15,1.68.19,2.78s.05,2.44.05,4.02-.02,2.93-.05,4.02c-.04,1.1-.1,2.02-.19,2.78s-.19,1.4-.3,1.92c-.11.52-.23,1.02-.38,1.49-1.77,5.44-5.86,8.15-12.28,8.15h-13.15c-.36,0-.54-.18-.54-.54v-35.64h0ZM620.9,304.72c0,.22.11.32.32.32h5.45c2.05,0,3.7-.36,4.94-1.08s2.13-1.91,2.67-3.56c.11-.25.2-.57.27-.94.07-.38.13-.86.19-1.46.05-.59.1-1.34.13-2.24.04-.9.05-2.02.05-3.35s-.02-2.45-.05-3.35c-.04-.9-.08-1.66-.13-2.27s-.12-1.1-.19-1.46-.16-.67-.27-.92c-.54-1.66-1.43-2.84-2.67-3.56s-2.89-1.08-4.94-1.08h-5.45c-.22,0-.32.11-.32.32v24.62h0Z"/>
      <path d="M686.11,345.52c0-.36.18-.54.54-.54h23c.36,0,.54.18.54.54v4.64c0,.36-.18.54-.54.54h-16.85c-.22,0-.32.11-.32.32v8.96c0,.22.11.32.32.32h14.2c.36,0,.54.18.54.54v4.64c0,.36-.18.54-.54.54h-14.2c-.22,0-.32.11-.32.32v9.29c0,.22.11.32.32.32h16.85c.36,0,.54.18.54.54v4.64c0,.36-.18.54-.54.54h-23c-.36,0-.54-.18-.54-.54v-35.64.03h0Z"/>
      <path d="M756.86,416.01c0-.36.18-.54.54-.54h23c.36,0,.54.18.54.54v4.64c0,.36-.18.54-.54.54h-16.85c-.22,0-.32.11-.32.32v9.34c0,.22.11.32.32.32h14.2c.36,0,.54.18.54.54v4.64c0,.36-.18.54-.54.54h-14.2c-.22,0-.32.11-.32.32v14.42c0,.36-.18.54-.54.54h-5.29c-.36,0-.54-.18-.54-.54v-35.64.02h0Z"/>
    </g>
    <g>
      <path d="M297.61,71.22c0-.18.09-.27.27-.27h1.75c.22,0,.36.09.43.27l5.48,12.37h.08l5.37-12.37c.07-.18.22-.27.43-.27h1.75c.18,0,.27.09.27.27v17.82c0,.18-.09.27-.27.27h-1.7c-.18,0-.27-.09-.27-.27v-12.77h-.08l-4.56,10.1c-.09.22-.25.32-.49.32h-1.08c-.25,0-.42-.11-.51-.32l-4.56-10.1h-.08v12.77c0,.18-.09.27-.27.27h-1.7c-.18,0-.27-.09-.27-.27v-17.82h0Z"/>
      <path d="M317.72,73.46c-.18,0-.27-.09-.27-.27v-1.97c0-.18.09-.27.27-.27h1.84c.18,0,.27.09.27.27v1.97c0,.18-.09.27-.27.27h-1.84ZM317.77,89.31c-.18,0-.27-.09-.27-.27v-12.39c0-.18.09-.27.27-.27h1.73c.18,0,.27.09.27.27v12.39c0,.18-.09.27-.27.27h-1.73Z"/>
      <path d="M332.16,89.31c-.18,0-.27-.09-.27-.27v-7.56c0-1.04-.24-1.85-.71-2.43-.48-.58-1.2-.86-2.17-.86-.88,0-1.6.28-2.15.85s-.82,1.34-.82,2.31v7.69c0,.18-.09.27-.27.27h-1.73c-.18,0-.27-.09-.27-.27v-12.39c0-.18.09-.27.27-.27h1.73c.18,0,.27.09.27.27v1.19h.03c.31-.5.76-.92,1.38-1.26s1.36-.5,2.24-.5c1.4,0,2.5.44,3.29,1.32s1.19,2.06,1.19,3.54v8.1c0,.18-.09.27-.27.27h-1.74Z"/>
      <path d="M338.24,73.46c-.18,0-.27-.09-.27-.27v-1.97c0-.18.09-.27.27-.27h1.84c.18,0,.27.09.27.27v1.97c0,.18-.09.27-.27.27h-1.84ZM338.29,89.31c-.18,0-.27-.09-.27-.27v-12.39c0-.18.09-.27.27-.27h1.73c.18,0,.27.09.27.27v12.39c0,.18-.09.27-.27.27h-1.73Z"/>
      <path d="M360.81,89.31c-.18,0-.27-.09-.27-.27v-7.56c0-1.04-.24-1.85-.71-2.43-.48-.58-1.2-.86-2.17-.86-.86,0-1.58.28-2.13.85-.56.57-.84,1.34-.84,2.31v7.69c0,.18-.09.27-.27.27h-1.73c-.18,0-.27-.09-.27-.27v-7.56c0-1.04-.24-1.85-.71-2.43-.48-.58-1.2-.86-2.17-.86-.88,0-1.6.28-2.15.85s-.82,1.34-.82,2.31v7.69c0,.18-.09.27-.27.27h-1.73c-.18,0-.27-.09-.27-.27v-12.39c0-.18.09-.27.27-.27h1.73c.18,0,.27.09.27.27v1.19h.03c.31-.5.76-.92,1.38-1.26s1.36-.5,2.24-.5,1.64.18,2.28.53,1.14.85,1.5,1.5h.03c.45-.63,1.01-1.12,1.69-1.48s1.51-.54,2.5-.54c1.51,0,2.66.44,3.44,1.32s1.17,2.06,1.17,3.54v8.1c0,.18-.09.27-.27.27h-1.75Z"/>
      <path d="M374.37,89.31c-.18,0-.27-.09-.27-.27v-1.13h-.03c-.31.49-.77.89-1.4,1.21s-1.44.49-2.43.49c-.61,0-1.18-.08-1.71-.24s-.99-.41-1.38-.73-.69-.73-.92-1.22-.34-1.06-.34-1.71c0-1.37.45-2.38,1.34-3.03.89-.65,2.13-.98,3.71-.98h2.94c.11,0,.16-.05.16-.16v-.94c0-.89-.22-1.54-.65-1.93s-1.25-.59-2.46-.59c-.74,0-1.35.09-1.84.26-.49.17-.92.39-1.3.66-.16.13-.29.12-.38-.03l-.73-1.24c-.07-.14-.05-.27.05-.38.49-.38,1.1-.68,1.84-.92s1.59-.35,2.57-.35c1.84,0,3.14.34,3.92,1.01.77.67,1.16,1.8,1.16,3.39v8.56c0,.18-.09.27-.27.27h-1.59,0ZM370.78,87.66c1.03,0,1.83-.22,2.4-.66.58-.44.86-1.07.86-1.88v-1.43c0-.11-.05-.16-.16-.16h-2.59c-1.13,0-1.95.17-2.46.5s-.76.87-.76,1.61c0,.67.23,1.17.7,1.51.47.34,1.13.51,2,.51h.01Z"/>
      <path d="M383.25,89.44c-1.13,0-1.94-.27-2.43-.82s-.73-1.41-.73-2.58v-14.82c0-.18.09-.27.27-.27h1.73c.18,0,.27.09.27.27v14.69c0,.54.1.91.31,1.12s.54.31.99.31h.51c.18,0,.27.09.27.27v1.57c0,.18-.09.27-.27.27h-.92,0Z"/>
    </g>
    <g>
      <path d="M297.61,141.81c0-.18.09-.27.27-.27h11.07c.18,0,.27.09.27.27v1.7c0,.18-.09.27-.27.27h-8.75c-.11,0-.16.05-.16.16v5.59c0,.11.05.16.16.16h7.42c.18,0,.27.09.27.27v1.7c0,.18-.09.27-.27.27h-7.42c-.11,0-.16.05-.16.16v7.53c0,.18-.09.27-.27.27h-1.88c-.18,0-.27-.09-.27-.27v-17.82h-.01Z"/>
      <path d="M319.02,159.9c-.18,0-.27-.09-.27-.27v-1.13h-.03c-.31.49-.77.89-1.4,1.21s-1.44.49-2.43.49c-.61,0-1.18-.08-1.71-.24s-.99-.41-1.38-.73-.69-.73-.92-1.22-.34-1.06-.34-1.71c0-1.37.45-2.38,1.34-3.03.89-.65,2.13-.98,3.71-.98h2.94c.11,0,.16-.05.16-.16v-.94c0-.89-.22-1.54-.65-1.93s-1.25-.59-2.46-.59c-.74,0-1.35.09-1.84.26s-.92.39-1.3.66c-.16.13-.29.12-.38-.03l-.73-1.24c-.07-.14-.05-.27.05-.38.49-.38,1.1-.68,1.84-.92s1.59-.35,2.57-.35c1.84,0,3.14.34,3.92,1.01.77.67,1.16,1.8,1.16,3.39v8.56c0,.18-.09.27-.27.27h-1.59,0ZM315.43,158.25c1.03,0,1.83-.22,2.4-.66.58-.44.86-1.07.86-1.88v-1.43c0-.11-.05-.16-.16-.16h-2.59c-1.13,0-1.95.17-2.46.5s-.76.87-.76,1.61c0,.67.23,1.17.7,1.51s1.13.51,2,.51h.01Z"/>
      <path d="M325,144.05c-.18,0-.27-.09-.27-.27v-1.97c0-.18.09-.27.27-.27h1.84c.18,0,.27.09.27.27v1.97c0,.18-.09.27-.27.27h-1.84ZM325.05,159.9c-.18,0-.27-.09-.27-.27v-12.39c0-.18.09-.27.27-.27h1.73c.18,0,.27.09.27.27v12.39c0,.18-.09.27-.27.27h-1.73Z"/>
      <path d="M331.31,159.9c-.18,0-.27-.09-.27-.27v-17.82c0-.18.09-.27.27-.27h1.73c.18,0,.27.09.27.27v6.64h.03c.31-.52.75-.95,1.34-1.28s1.36-.5,2.33-.5c1.13,0,2.08.26,2.83.78.76.52,1.3,1.3,1.62,2.32.18.52.3,1.06.37,1.61.06.55.09,1.23.09,2.04s-.03,1.49-.09,2.05-.19,1.1-.37,1.62c-.32,1.03-.86,1.8-1.62,2.32s-1.7.78-2.83.78c-.97,0-1.75-.17-2.33-.51s-1.03-.77-1.34-1.3h-.03v1.24c0,.18-.09.27-.27.27h-1.73ZM336.47,158.09c1.44,0,2.38-.66,2.83-1.97.11-.34.18-.73.23-1.16s.07-.95.07-1.54-.02-1.08-.07-1.51c-.04-.43-.12-.83-.23-1.19-.45-1.3-1.39-1.94-2.83-1.94s-2.43.65-2.86,1.94c-.11.32-.19.69-.23,1.11-.05.41-.07.95-.07,1.59s.02,1.18.07,1.61c.04.42.12.79.23,1.09.43,1.31,1.39,1.97,2.86,1.97Z"/>
      <path d="M348.44,160.04c-1.13,0-1.94-.27-2.43-.82s-.73-1.41-.73-2.58v-14.82c0-.18.09-.27.27-.27h1.73c.18,0,.27.09.27.27v14.69c0,.54.1.91.31,1.12.21.21.54.31.99.31h.51c.18,0,.27.09.27.27v1.57c0,.18-.09.27-.27.27h-.92,0Z"/>
      <path d="M357.32,160.2c-1.31,0-2.42-.3-3.31-.9-.89-.6-1.52-1.47-1.88-2.61-.14-.41-.25-.87-.32-1.38-.07-.5-.11-1.13-.11-1.89s.03-1.39.09-1.9.17-.97.31-1.36c.36-1.13.99-2,1.88-2.59s1.96-.89,3.2-.89,2.31.3,3.2.9c.89.6,1.52,1.46,1.88,2.58.07.22.13.44.17.66s.09.48.12.77c.04.29.06.62.08.99.02.37.03.8.03,1.28,0,.18-.1.27-.3.27h-8.18c-.11,0-.16.05-.16.16,0,.36.02.66.05.89.04.23.09.46.16.68.25.76.66,1.32,1.21,1.69.56.37,1.24.55,2.05.55s1.43-.13,1.97-.4.99-.61,1.35-1.03c.14-.14.28-.16.41-.05l1.11,1c.12.11.13.23.03.38-.52.65-1.21,1.18-2.07,1.59-.85.41-1.85.62-2.98.62h.01ZM360.19,152.29c.11,0,.16-.05.16-.16,0-.59-.06-1.07-.19-1.45-.22-.64-.58-1.14-1.09-1.49s-1.14-.52-1.88-.52-1.36.17-1.88.52c-.51.35-.88.84-1.09,1.49-.13.38-.19.86-.19,1.45,0,.11.05.16.16.16h6Z"/>
    </g>
    <g>
      <path d="M297.61,212.4c0-.18.09-.27.27-.27h1.75c.22,0,.36.09.43.27l5.48,12.37h.08l5.37-12.37c.07-.18.22-.27.43-.27h1.75c.18,0,.27.09.27.27v17.82c0,.18-.09.27-.27.27h-1.7c-.18,0-.27-.09-.27-.27v-12.77h-.08l-4.56,10.1c-.09.22-.25.32-.49.32h-1.08c-.25,0-.42-.11-.51-.32l-4.56-10.1h-.08v12.77c0,.18-.09.27-.27.27h-1.7c-.18,0-.27-.09-.27-.27v-17.82h0Z"/>
      <path d="M322.42,230.79c-1.26,0-2.33-.31-3.23-.92-.89-.61-1.52-1.47-1.88-2.56-.14-.45-.25-.92-.32-1.42-.07-.49-.11-1.12-.11-1.88s.04-1.38.11-1.86c.07-.49.18-.95.32-1.4.36-1.12.99-1.98,1.88-2.58s1.97-.9,3.23-.9,2.34.3,3.23.9c.89.6,1.52,1.46,1.88,2.58.14.45.25.92.32,1.4.07.49.11,1.11.11,1.86s-.04,1.38-.11,1.88c-.07.5-.18.97-.32,1.42-.36,1.1-.99,1.95-1.88,2.56s-1.97.92-3.23.92ZM322.42,228.68c.72,0,1.33-.18,1.84-.53s.86-.85,1.08-1.5c.11-.36.18-.73.23-1.12.04-.39.07-.9.07-1.53s-.02-1.13-.07-1.51c-.04-.38-.12-.75-.23-1.11-.22-.65-.58-1.15-1.08-1.5s-1.12-.53-1.84-.53-1.33.18-1.84.53-.86.85-1.08,1.5c-.11.36-.18.73-.23,1.11-.04.38-.07.88-.07,1.51s.02,1.14.07,1.53c.04.39.12.76.23,1.12.22.65.58,1.15,1.08,1.5s1.12.53,1.84.53Z"/>
      <path d="M339.61,230.49c-.18,0-.27-.09-.27-.27v-1.24h-.03c-.31.52-.75.95-1.34,1.3-.58.34-1.36.51-2.34.51-1.13,0-2.08-.26-2.83-.78-.76-.52-1.3-1.3-1.62-2.32-.18-.52-.3-1.06-.36-1.62s-.09-1.24-.09-2.05.03-1.49.09-2.04c.06-.55.18-1.08.36-1.61.32-1.03.86-1.8,1.62-2.32s1.7-.78,2.83-.78c.97,0,1.75.17,2.34.5s1.03.76,1.34,1.28h.03v-6.64c0-.18.09-.27.27-.27h1.73c.18,0,.27.09.27.27v17.82c0,.18-.09.27-.27.27h-1.73ZM336.18,228.68c1.48,0,2.43-.66,2.86-1.97.11-.31.18-.67.23-1.09.04-.42.07-.96.07-1.61s-.02-1.18-.07-1.59c-.04-.41-.12-.78-.23-1.11-.43-1.3-1.39-1.94-2.86-1.94s-2.38.65-2.83,1.94c-.11.36-.18.76-.23,1.19-.04.43-.07.94-.07,1.51s.02,1.11.07,1.54.12.82.23,1.16c.45,1.31,1.39,1.97,2.83,1.97Z"/>
      <path d="M350.63,230.79c-1.31,0-2.42-.3-3.31-.9-.89-.6-1.52-1.47-1.88-2.61-.14-.41-.25-.87-.32-1.38-.07-.5-.11-1.13-.11-1.89s.03-1.39.09-1.9.17-.97.31-1.36c.36-1.13.99-2,1.88-2.59s1.96-.89,3.2-.89,2.31.3,3.2.9c.89.6,1.52,1.46,1.88,2.58.07.22.13.44.17.66s.09.48.12.77c.04.29.06.62.08.99.02.37.03.8.03,1.28,0,.18-.1.27-.3.27h-8.18c-.11,0-.16.05-.16.16,0,.36.02.66.05.89.04.23.09.46.16.68.25.76.66,1.32,1.21,1.69.56.37,1.24.55,2.05.55s1.43-.13,1.97-.4.99-.61,1.35-1.03c.14-.14.28-.16.41-.05l1.11,1c.12.11.13.23.03.38-.52.65-1.21,1.18-2.07,1.59-.85.41-1.85.62-2.98.62h.01ZM353.49,222.88c.11,0,.16-.05.16-.16,0-.59-.06-1.07-.19-1.45-.22-.64-.58-1.14-1.09-1.49s-1.14-.52-1.88-.52-1.36.17-1.88.52c-.51.35-.88.84-1.09,1.49-.13.38-.19.86-.19,1.45,0,.11.05.16.16.16h6ZM349.47,215.45c-.2,0-.25-.09-.16-.27l2.05-3.32c.11-.18.26-.27.46-.27h1.78c.09,0,.15.03.18.08s.01.12-.04.19l-2.48,3.32c-.14.18-.32.27-.51.27h-1.28,0Z"/>
      <path d="M359.53,230.49c-.18,0-.27-.09-.27-.27v-12.39c0-.18.09-.27.27-.27h1.73c.18,0,.27.09.27.27v1.32h.03c.29-.56.72-1.01,1.28-1.36.57-.35,1.28-.53,2.15-.53.52,0,1.01.09,1.47.26s.85.41,1.17.72c.13.13.14.25.05.38l-1,1.32c-.11.14-.23.16-.38.05-.31-.2-.62-.35-.94-.46s-.68-.16-1.05-.16c-.99,0-1.7.35-2.13,1.04s-.65,1.61-.65,2.74v7.07c0,.18-.09.27-.27.27h-1.73Z"/>
      <path d="M374.93,230.79c-1.31,0-2.42-.3-3.31-.9-.89-.6-1.52-1.47-1.88-2.61-.14-.41-.25-.87-.32-1.38-.07-.5-.11-1.13-.11-1.89s.03-1.39.09-1.9.17-.97.31-1.36c.36-1.13.99-2,1.88-2.59s1.96-.89,3.2-.89,2.31.3,3.2.9c.89.6,1.52,1.46,1.88,2.58.07.22.13.44.17.66s.09.48.12.77c.04.29.06.62.08.99.02.37.03.8.03,1.28,0,.18-.1.27-.3.27h-8.18c-.11,0-.16.05-.16.16,0,.36.02.66.05.89.04.23.09.46.16.68.25.76.66,1.32,1.21,1.69.56.37,1.24.55,2.05.55s1.43-.13,1.97-.4.99-.61,1.35-1.03c.14-.14.28-.16.41-.05l1.11,1c.12.11.13.23.03.38-.52.65-1.21,1.18-2.07,1.59-.85.41-1.85.62-2.98.62h.01ZM377.79,222.88c.11,0,.16-.05.16-.16,0-.59-.06-1.07-.19-1.45-.22-.64-.58-1.14-1.09-1.49s-1.14-.52-1.88-.52-1.36.17-1.88.52c-.51.35-.88.84-1.09,1.49-.13.38-.19.86-.19,1.45,0,.11.05.16.16.16h6ZM373.77,215.45c-.2,0-.25-.09-.16-.27l2.05-3.32c.11-.18.26-.27.46-.27h1.78c.09,0,.15.03.18.08s.01.12-.04.19l-2.48,3.32c-.14.18-.32.27-.51.27h-1.28,0Z"/>
    </g>
    <g>
      <path d="M297.61,283c0-.18.09-.27.27-.27h11.07c.18,0,.27.09.27.27v1.7c0,.18-.09.27-.27.27h-8.75c-.11,0-.16.05-.16.16v5.4c0,.11.05.16.16.16h7.42c.18,0,.27.09.27.27v1.7c0,.18-.09.27-.27.27h-7.42c-.11,0-.16.05-.16.16v5.59c0,.11.05.16.16.16h8.75c.18,0,.27.09.27.27v1.7c0,.18-.09.27-.27.27h-11.07c-.18,0-.27-.09-.27-.27v-17.82h0ZM301.95,280.51c-.09,0-.14-.03-.16-.08s0-.12.05-.19l2.32-2.86c.07-.09.14-.16.2-.2s.16-.07.28-.07h1.89c.09,0,.15.03.18.08s.01.12-.04.19l-2.89,2.89c-.09.11-.17.18-.24.2-.07.03-.15.04-.24.04h-1.35Z"/>
      <path d="M315.48,301.22c-1.13,0-1.94-.27-2.43-.82-.49-.55-.73-1.41-.73-2.58v-14.82c0-.18.09-.27.27-.27h1.73c.18,0,.27.09.27.27v14.69c0,.54.1.91.31,1.12s.54.31.99.31h.51c.18,0,.27.09.27.27v1.57c0,.18-.09.27-.27.27h-.92,0Z"/>
      <path d="M324.37,301.38c-1.31,0-2.42-.3-3.31-.9-.89-.6-1.52-1.47-1.88-2.61-.14-.41-.25-.87-.32-1.38-.07-.5-.11-1.13-.11-1.89s.03-1.39.09-1.9c.06-.51.17-.97.31-1.36.36-1.13.99-2,1.88-2.59s1.96-.89,3.2-.89,2.31.3,3.2.9,1.52,1.46,1.88,2.58c.07.22.13.44.17.66.04.23.09.48.12.77.04.29.06.62.08.99s.03.8.03,1.28c0,.18-.1.27-.3.27h-8.18c-.11,0-.16.05-.16.16,0,.36.02.66.05.89.04.23.09.46.16.68.25.76.66,1.32,1.21,1.69.56.37,1.24.55,2.05.55s1.43-.13,1.97-.4.99-.61,1.35-1.03c.14-.14.28-.16.41-.05l1.11,1c.12.11.13.23.03.38-.52.65-1.21,1.18-2.07,1.59s-1.85.62-2.98.62h.01ZM327.23,293.47c.11,0,.16-.05.16-.16,0-.59-.06-1.07-.19-1.45-.22-.64-.58-1.14-1.09-1.49-.51-.35-1.14-.52-1.88-.52s-1.36.17-1.88.52c-.51.35-.88.84-1.09,1.49-.13.38-.19.86-.19,1.45,0,.11.05.16.16.16h6Z"/>
      <path d="M336.38,301.09c-.16,0-.27-.09-.32-.27l-4.64-12.39c-.05-.18.02-.27.22-.27h1.86c.16,0,.28.09.35.27l3.35,9.29h.05l3.27-9.29c.05-.18.16-.27.32-.27h1.84c.2,0,.27.09.22.27l-4.62,12.39c-.05.18-.17.27-.35.27h-1.55,0Z"/>
      <path d="M350.22,301.38c-1.31,0-2.42-.3-3.31-.9-.89-.6-1.52-1.47-1.88-2.61-.14-.41-.25-.87-.32-1.38-.07-.5-.11-1.13-.11-1.89s.03-1.39.09-1.9c.06-.51.17-.97.31-1.36.36-1.13.99-2,1.88-2.59s1.96-.89,3.2-.89,2.31.3,3.2.9,1.52,1.46,1.88,2.58c.07.22.13.44.17.66.04.23.09.48.12.77.04.29.06.62.08.99s.03.8.03,1.28c0,.18-.1.27-.3.27h-8.18c-.11,0-.16.05-.16.16,0,.36.02.66.05.89.04.23.09.46.16.68.25.76.66,1.32,1.21,1.69.56.37,1.24.55,2.05.55s1.43-.13,1.97-.4.99-.61,1.35-1.03c.14-.14.28-.16.41-.05l1.11,1c.12.11.13.23.03.38-.52.65-1.21,1.18-2.07,1.59s-1.85.62-2.98.62h.01ZM353.08,293.47c.11,0,.16-.05.16-.16,0-.59-.06-1.07-.19-1.45-.22-.64-.58-1.14-1.09-1.49-.51-.35-1.14-.52-1.88-.52s-1.36.17-1.88.52c-.51.35-.88.84-1.09,1.49-.13.38-.19.86-.19,1.45,0,.11.05.16.16.16h6ZM349.06,286.05c-.2,0-.25-.09-.16-.27l2.05-3.32c.11-.18.26-.27.46-.27h1.78c.09,0,.15.03.18.08s.01.12-.04.19l-2.48,3.32c-.14.18-.32.27-.51.27h-1.28,0Z"/>
    </g>
    <g>
      <path d="M301.66,371.68c-.18,0-.27-.09-.27-.27v-15.69c0-.11-.05-.16-.16-.16h-5.02c-.18,0-.27-.09-.27-.27v-1.7c0-.18.09-.27.27-.27h12.8c.18,0,.27.09.27.27v1.7c0,.18-.09.27-.27.27h-5.02c-.11,0-.16.05-.16.16v15.69c0,.18-.09.27-.27.27h-1.9Z"/>
      <path d="M309.97,371.68c-.18,0-.27-.09-.27-.27v-12.39c0-.18.09-.27.27-.27h1.73c.18,0,.27.09.27.27v1.32h.03c.29-.56.72-1.01,1.28-1.36.57-.35,1.28-.53,2.15-.53.52,0,1.01.08,1.47.26.46.17.85.41,1.17.72.13.13.14.25.05.38l-1,1.32c-.11.14-.23.16-.38.05-.31-.2-.62-.35-.94-.46s-.68-.16-1.05-.16c-.99,0-1.7.35-2.13,1.04s-.65,1.61-.65,2.74v7.07c0,.18-.09.27-.27.27h-1.73Z"/>
      <path d="M325.36,371.97c-1.31,0-2.42-.3-3.31-.9-.89-.6-1.52-1.47-1.88-2.61-.14-.41-.25-.87-.32-1.38-.07-.5-.11-1.13-.11-1.89s.03-1.39.09-1.9c.06-.51.17-.97.31-1.36.36-1.13.99-2,1.88-2.59s1.96-.89,3.2-.89,2.31.3,3.2.9,1.52,1.46,1.88,2.58c.07.22.13.44.17.66s.09.48.12.77.06.62.08.99.03.8.03,1.28c0,.18-.1.27-.3.27h-8.18c-.11,0-.16.05-.16.16,0,.36.02.66.05.89.04.23.09.46.16.67.25.76.66,1.32,1.21,1.69.56.37,1.24.55,2.05.55s1.43-.13,1.97-.41c.54-.27.99-.61,1.35-1.03.14-.14.28-.16.41-.05l1.11,1c.12.11.13.23.03.38-.52.65-1.21,1.18-2.07,1.59-.85.41-1.85.62-2.98.62h.01ZM325.09,356.64c-.22,0-.39-.09-.51-.27l-2.51-3.32c-.05-.07-.07-.13-.04-.19.03-.05.09-.08.18-.08h1.8c.22,0,.38.09.49.27l2.03,3.32c.09.18.04.27-.16.27h-1.28,0ZM328.22,364.06c.11,0,.16-.05.16-.16,0-.59-.06-1.07-.19-1.45-.22-.64-.58-1.14-1.09-1.49-.51-.35-1.14-.52-1.88-.52s-1.36.17-1.88.52c-.51.35-.88.84-1.09,1.49-.13.38-.19.86-.19,1.45,0,.11.05.16.16.16h6Z"/>
      <path d="M338.65,371.97c-.63,0-1.21-.06-1.75-.17-.54-.12-1.03-.27-1.47-.46s-.84-.4-1.19-.62c-.35-.23-.66-.46-.93-.69-.13-.13-.13-.25,0-.38l1.11-1.19c.13-.13.25-.13.38,0,.49.41,1.08.77,1.77,1.05.69.29,1.44.43,2.23.43.95,0,1.67-.18,2.13-.55.47-.37.7-.84.7-1.42,0-.5-.17-.9-.5-1.2s-1-.5-2.01-.61l-1.38-.13c-1.28-.14-2.24-.52-2.89-1.13-.65-.61-.97-1.45-.97-2.51,0-1.24.42-2.21,1.26-2.9s2.02-1.04,3.55-1.04c.95,0,1.82.13,2.61.4.78.27,1.44.61,1.98,1.03.14.09.16.22.05.38l-.92,1.16c-.11.13-.23.14-.38.05-.41-.27-.93-.51-1.55-.73s-1.26-.32-1.93-.32c-.81,0-1.42.17-1.84.5s-.62.76-.62,1.28.18.92.54,1.2c.36.28,1.03.46,2,.55l1.36.13c1.32.13,2.3.5,2.94,1.13s.96,1.47.96,2.51c0,1.28-.45,2.3-1.35,3.08-.9.77-2.2,1.16-3.89,1.16h0Z"/>
      <path d="M358.74,371.97c-1.31,0-2.42-.3-3.31-.9-.89-.6-1.52-1.47-1.88-2.61-.14-.41-.25-.87-.32-1.38-.07-.5-.11-1.13-.11-1.89s.03-1.39.09-1.9c.06-.51.17-.97.31-1.36.36-1.13.99-2,1.88-2.59s1.96-.89,3.2-.89,2.31.3,3.2.9,1.52,1.46,1.88,2.58c.07.22.13.44.17.66s.09.48.12.77.06.62.08.99.03.8.03,1.28c0,.18-.1.27-.3.27h-8.18c-.11,0-.16.05-.16.16,0,.36.02.66.05.89.04.23.09.46.16.67.25.76.66,1.32,1.21,1.69.56.37,1.24.55,2.05.55s1.43-.13,1.97-.41c.54-.27.99-.61,1.35-1.03.14-.14.28-.16.41-.05l1.11,1c.12.11.13.23.03.38-.52.65-1.21,1.18-2.07,1.59-.85.41-1.85.62-2.98.62h.01ZM361.6,364.06c.11,0,.16-.05.16-.16,0-.59-.06-1.07-.19-1.45-.22-.64-.58-1.14-1.09-1.49-.51-.35-1.14-.52-1.88-.52s-1.36.17-1.88.52c-.51.35-.88.84-1.09,1.49-.13.38-.19.86-.19,1.45,0,.11.05.16.16.16h6ZM357.58,356.64c-.2,0-.25-.09-.16-.27l2.05-3.32c.11-.18.26-.27.46-.27h1.78c.09,0,.15.03.18.08s.01.12-.04.19l-2.48,3.32c-.14.18-.32.27-.51.27h-1.28,0Z"/>
      <path d="M370.51,371.81c-1.13,0-1.94-.27-2.43-.82-.49-.55-.73-1.41-.73-2.58v-14.82c0-.18.09-.27.27-.27h1.73c.18,0,.27.09.27.27v14.69c0,.54.1.91.31,1.12s.54.31.99.31h.51c.18,0,.27.09.27.27v1.57c0,.18-.09.27-.27.27h-.92,0Z"/>
      <path d="M379.39,371.97c-1.31,0-2.42-.3-3.31-.9-.89-.6-1.52-1.47-1.88-2.61-.14-.41-.25-.87-.32-1.38-.07-.5-.11-1.13-.11-1.89s.03-1.39.09-1.9c.06-.51.17-.97.31-1.36.36-1.13.99-2,1.88-2.59s1.96-.89,3.2-.89,2.31.3,3.2.9,1.52,1.46,1.88,2.58c.07.22.13.44.17.66s.09.48.12.77.06.62.08.99.03.8.03,1.28c0,.18-.1.27-.3.27h-8.18c-.11,0-.16.05-.16.16,0,.36.02.66.05.89.04.23.09.46.16.67.25.76.66,1.32,1.21,1.69.56.37,1.24.55,2.05.55s1.43-.13,1.97-.41c.54-.27.99-.61,1.35-1.03.14-.14.28-.16.41-.05l1.11,1c.12.11.13.23.03.38-.52.65-1.21,1.18-2.07,1.59-.85.41-1.85.62-2.98.62h.01ZM382.26,364.06c.11,0,.16-.05.16-.16,0-.59-.06-1.07-.19-1.45-.22-.64-.58-1.14-1.09-1.49-.51-.35-1.14-.52-1.88-.52s-1.36.17-1.88.52c-.51.35-.88.84-1.09,1.49-.13.38-.19.86-.19,1.45,0,.11.05.16.16.16h6Z"/>
      <path d="M391.41,371.68c-.16,0-.27-.09-.32-.27l-4.64-12.39c-.05-.18.02-.27.22-.27h1.86c.16,0,.28.09.35.27l3.35,9.29h.05l3.27-9.29c.05-.18.16-.27.32-.27h1.84c.2,0,.27.09.22.27l-4.62,12.39c-.05.18-.17.27-.35.27h-1.55,0Z"/>
      <path d="M405.25,371.97c-1.31,0-2.42-.3-3.31-.9-.89-.6-1.52-1.47-1.88-2.61-.14-.41-.25-.87-.32-1.38-.07-.5-.11-1.13-.11-1.89s.03-1.39.09-1.9c.06-.51.17-.97.31-1.36.36-1.13.99-2,1.88-2.59s1.96-.89,3.2-.89,2.31.3,3.2.9,1.52,1.46,1.88,2.58c.07.22.13.44.17.66s.09.48.12.77.06.62.08.99.03.8.03,1.28c0,.18-.1.27-.3.27h-8.18c-.11,0-.16.05-.16.16,0,.36.02.66.05.89.04.23.09.46.16.67.25.76.66,1.32,1.21,1.69.56.37,1.24.55,2.05.55s1.43-.13,1.97-.41c.54-.27.99-.61,1.35-1.03.14-.14.28-.16.41-.05l1.11,1c.12.11.13.23.03.38-.52.65-1.21,1.18-2.07,1.59-.85.41-1.85.62-2.98.62h.01ZM408.11,364.06c.11,0,.16-.05.16-.16,0-.59-.06-1.07-.19-1.45-.22-.64-.58-1.14-1.09-1.49-.51-.35-1.14-.52-1.88-.52s-1.36.17-1.88.52c-.51.35-.88.84-1.09,1.49-.13.38-.19.86-.19,1.45,0,.11.05.16.16.16h6ZM404.08,356.64c-.2,0-.25-.09-.16-.27l2.05-3.32c.11-.18.26-.27.46-.27h1.78c.09,0,.15.03.18.08s.01.12-.04.19l-2.48,3.32c-.14.18-.32.27-.51.27h-1.28,0Z"/>
    </g>
    <g>
      <path d="M297.45,438.25c-.09-.27-.17-.54-.23-.82s-.11-.61-.15-1-.06-.85-.08-1.39-.03-1.19-.03-1.94,0-1.4.03-1.94c.02-.54.04-1,.08-1.39.04-.39.09-.72.15-1s.14-.55.23-.82c.47-1.46,1.22-2.54,2.27-3.25s2.32-1.07,3.83-1.07c1.37,0,2.56.32,3.58.96s1.79,1.55,2.31,2.74c.05.16.02.28-.11.35l-1.62.78c-.18.09-.31.05-.38-.13-.36-.72-.84-1.31-1.43-1.77s-1.38-.69-2.35-.69-1.82.23-2.43.7-1.07,1.13-1.38,2c-.05.2-.1.41-.15.63s-.08.5-.11.84-.05.75-.07,1.24c-.02.5-.03,1.1-.03,1.82s0,1.33.03,1.82c.02.5.04.91.07,1.24s.06.62.11.85c.04.23.09.44.15.62.31.86.76,1.53,1.38,2,.61.47,1.42.7,2.43.7s1.75-.23,2.35-.69c.59-.46,1.07-1.05,1.43-1.77.07-.18.2-.23.38-.14l1.62.78c.12.07.16.19.11.35-.52,1.19-1.29,2.1-2.31,2.74s-2.21.96-3.58.96c-1.51,0-2.79-.35-3.83-1.07-1.04-.71-1.8-1.79-2.27-3.25h0Z"/>
      <path d="M312.78,442.27c-.18,0-.27-.09-.27-.27v-12.39c0-.18.09-.27.27-.27h1.73c.18,0,.27.09.27.27v1.32h.03c.29-.56.72-1.01,1.28-1.36.57-.35,1.28-.53,2.15-.53.52,0,1.01.08,1.47.26.46.17.85.41,1.17.72.13.13.14.25.05.38l-1,1.32c-.11.14-.23.16-.38.05-.31-.2-.62-.35-.94-.46s-.68-.16-1.05-.16c-.99,0-1.7.35-2.13,1.04s-.65,1.61-.65,2.74v7.07c0,.18-.09.27-.27.27h-1.73Z"/>
      <path d="M323.8,426.42c-.18,0-.27-.09-.27-.27v-1.97c0-.18.09-.27.27-.27h1.84c.18,0,.27.09.27.27v1.97c0,.18-.09.27-.27.27h-1.84ZM323.85,442.27c-.18,0-.27-.09-.27-.27v-12.39c0-.18.09-.27.27-.27h1.73c.18,0,.27.09.27.27v12.39c0,.18-.09.27-.27.27h-1.73Z"/>
      <path d="M333.72,442.4c-1.26,0-2.16-.29-2.69-.88s-.8-1.52-.8-2.79v-7.4c0-.11-.05-.16-.16-.16h-1.08c-.18,0-.27-.09-.27-.27v-1.3c0-.18.09-.27.27-.27h1.08c.11,0,.16-.05.16-.16v-3.65c0-.18.09-.27.27-.27h1.73c.18,0,.27.09.27.27v3.65c0,.11.05.16.16.16h2.05c.18,0,.27.09.27.27v1.3c0,.18-.09.27-.27.27h-2.05c-.11,0-.16.05-.16.16v7.32c0,.65.13,1.08.39,1.31s.68.34,1.26.34h.57c.18,0,.27.09.27.27v1.57c0,.18-.09.27-.27.27h-1Z"/>
      <path d="M338.23,426.42c-.18,0-.27-.09-.27-.27v-1.97c0-.18.09-.27.27-.27h1.84c.18,0,.27.09.27.27v1.97c0,.18-.09.27-.27.27h-1.84ZM338.29,442.27c-.18,0-.27-.09-.27-.27v-12.39c0-.18.09-.27.27-.27h1.73c.18,0,.27.09.27.27v12.39c0,.18-.09.27-.27.27h-1.73Z"/>
      <path d="M352.56,447.13c-.18,0-.27-.09-.27-.27v-6.1h-.03c-.31.52-.75.95-1.34,1.3s-1.36.51-2.34.51c-1.13,0-2.08-.26-2.83-.78-.76-.52-1.3-1.3-1.62-2.32-.18-.52-.3-1.06-.36-1.62s-.09-1.24-.09-2.05.03-1.49.09-2.04c.06-.55.18-1.08.36-1.61.32-1.03.86-1.8,1.62-2.32.76-.52,1.7-.78,2.83-.78.97,0,1.75.17,2.34.5s1.03.76,1.34,1.28h.03v-1.21c0-.18.09-.27.27-.27h1.73c.18,0,.27.09.27.27v17.25c0,.18-.09.27-.27.27h-1.73ZM349.13,440.46c1.48,0,2.43-.66,2.86-1.97.11-.31.18-.67.23-1.09s.07-.96.07-1.61-.02-1.18-.07-1.59c-.04-.41-.12-.78-.23-1.11-.43-1.3-1.39-1.94-2.86-1.94s-2.38.65-2.83,1.94c-.11.36-.18.76-.23,1.19-.04.43-.07.94-.07,1.51s.02,1.11.07,1.54c.04.43.12.82.23,1.16.45,1.31,1.39,1.97,2.83,1.97h0Z"/>
      <path d="M366.74,442.27c-.18,0-.27-.09-.27-.27v-1.21h-.03c-.34.54-.81.97-1.39,1.3-.58.32-1.3.49-2.15.49-1.42,0-2.52-.45-3.31-1.34-.78-.89-1.17-2.07-1.17-3.55v-8.07c0-.18.09-.27.27-.27h1.73c.18,0,.27.09.27.27v7.53c0,1.06.23,1.88.7,2.46s1.19.86,2.16.86c.88,0,1.59-.29,2.12-.86s.8-1.35.8-2.32v-7.67c0-.18.09-.27.27-.27h1.73c.18,0,.27.09.27.27v12.39c0,.18-.09.27-.27.27h-1.73,0Z"/>
      <path d="M377.76,442.56c-1.31,0-2.42-.3-3.31-.9-.89-.6-1.52-1.47-1.88-2.61-.14-.41-.25-.87-.32-1.38-.07-.5-.11-1.13-.11-1.89s.03-1.39.09-1.9c.06-.51.17-.97.31-1.36.36-1.13.99-2,1.88-2.59s1.96-.89,3.2-.89,2.31.3,3.2.9,1.52,1.46,1.88,2.58c.07.22.13.44.17.66s.09.48.12.77.06.62.08.99.03.8.03,1.28c0,.18-.1.27-.3.27h-8.18c-.11,0-.16.05-.16.16,0,.36.02.66.05.89.04.23.09.46.16.67.25.76.66,1.32,1.21,1.69.56.37,1.24.55,2.05.55s1.43-.13,1.97-.41c.54-.27.99-.61,1.35-1.03.14-.14.28-.16.41-.05l1.11,1c.12.11.13.23.03.38-.52.65-1.21,1.18-2.07,1.59-.85.41-1.85.62-2.98.62h.01ZM380.62,434.65c.11,0,.16-.05.16-.16,0-.59-.06-1.07-.19-1.45-.22-.64-.58-1.14-1.09-1.49-.51-.35-1.14-.52-1.88-.52s-1.36.17-1.88.52c-.51.35-.88.84-1.09,1.49-.13.38-.19.86-.19,1.45,0,.11.05.16.16.16h6Z"/>
    </g>
  </g>
</svg>