<?xml version="1.0" encoding="UTF-8"?>
<svg id="Calque_1" xmlns="http://www.w3.org/2000/svg" version="1.1" viewBox="0 0 32 32">
  <!-- Generator: Adobe Illustrator 29.6.1, SVG Export Plug-In . SVG Version: 2.1.1 Build 9)  -->
  <defs>
    <style>
      .st0 {
        fill: #fcee21;
      }
    </style>
  </defs>
  <g id="D">
    <g>
      <rect class="st0" x="1.03" y="1.05" width="29.92" height="29.92"/>
      <path d="M9.31,6.73c0-.19.09-.28.28-.28h6.85c3.34,0,5.48,1.42,6.4,4.25.07.24.14.5.2.77s.11.6.16,1,.08.88.1,1.45.03,1.27.03,2.09-.01,1.53-.03,2.09c-.02.57-.05,1.05-.1,1.45s-.1.73-.16,1-.12.53-.2.78c-.92,2.83-3.05,4.25-6.4,4.25h-6.85c-.19,0-.28-.09-.28-.28V6.73ZM12.63,22.43c0,.11.06.17.17.17h2.84c1.07,0,1.93-.19,2.57-.56s1.11-1,1.39-1.85c.06-.13.1-.3.14-.49.04-.2.07-.45.1-.76s.05-.7.07-1.17.03-1.05.03-1.75-.01-1.28-.03-1.75-.04-.86-.07-1.18-.06-.57-.1-.76-.08-.35-.14-.48c-.28-.86-.75-1.48-1.39-1.85s-1.51-.56-2.57-.56h-2.84c-.11,0-.17.06-.17.17v12.83h0Z"/>
    </g>
  </g>
  <g id="Contour">
    <path d="M32,32H0V0h32v32ZM2.08,29.92h27.83V2.08H2.08v27.83h0Z"/>
  </g>
</svg>