<?xml version="1.0" encoding="UTF-8"?>
<svg id="Calque_1" xmlns="http://www.w3.org/2000/svg" version="1.1" viewBox="0 0 32 32">
  <!-- Generator: Adobe Illustrator 29.6.1, SVG Export Plug-In . SVG Version: 2.1.1 Build 9)  -->
  <defs>
    <style>
      .st0 {
        fill: #39b54a;
      }
    </style>
  </defs>
  <g id="B">
    <g>
      <rect class="st0" x="1.04" y="1.04" width="29.92" height="29.92"/>
      <path d="M9.57,6.72c0-.19.09-.28.28-.28h7.12c2.03,0,3.53.46,4.5,1.39s1.46,2.16,1.46,3.7c0,1.09-.22,1.95-.66,2.6s-.96,1.13-1.56,1.45v.06c.3.11.6.29.9.54.3.24.57.55.82.92.24.36.45.79.6,1.27s.24,1.01.24,1.59c0,1.91-.57,3.33-1.71,4.25-1.15.92-2.77,1.38-4.87,1.38h-6.84c-.19,0-.28-.09-.28-.28V6.72h0ZM16.89,14.4c.84,0,1.51-.23,2-.69s.73-1.06.73-1.81-.24-1.38-.73-1.84-1.15-.69-2-.69h-3.82c-.11,0-.17.06-.17.17v4.7c0,.11.06.17.17.17h3.82ZM12.89,22.48c0,.11.06.17.17.17h4c.94,0,1.66-.24,2.15-.73s.75-1.14.75-1.94-.25-1.43-.75-1.91c-.49-.49-1.21-.73-2.15-.73h-4c-.11,0-.17.06-.17.17v4.98h0Z"/>
    </g>
  </g>
  <g id="Contour">
    <path d="M32,32H0V0h32v32ZM2.08,29.92h27.83V2.08H2.08v27.83h0Z"/>
  </g>
</svg>