<?xml version="1.0" encoding="UTF-8"?>
<svg id="Calque_1" xmlns="http://www.w3.org/2000/svg" version="1.1" viewBox="0 0 32 32">
  <!-- Generator: Adobe Illustrator 29.6.1, SVG Export Plug-In . SVG Version: 2.1.1 Build 9)  -->
  <defs>
    <style>
      .st0 {
        fill: #8cc63f;
      }
    </style>
  </defs>
  <g id="C">
    <g>
      <rect class="st0" x="1.04" y="1.04" width="29.92" height="29.92"/>
      <path d="M9.97,21.18c-.09-.3-.17-.59-.24-.89s-.12-.63-.16-1.01c-.04-.39-.07-.83-.08-1.35-.02-.52-.03-1.16-.03-1.93s.01-1.39.03-1.91c.02-.53.05-.98.08-1.37.04-.39.09-.72.16-1.01.06-.29.15-.58.24-.89.49-1.57,1.31-2.75,2.46-3.53s2.55-1.17,4.18-1.17c1.54,0,2.87.36,3.98,1.1,1.11.73,1.94,1.73,2.49,3.01.06.17.01.28-.14.34l-2.39,1.15c-.17.09-.29.05-.36-.14-.32-.68-.76-1.26-1.31-1.75s-1.31-.73-2.27-.73-1.66.22-2.21.68c-.55.45-.96,1.07-1.22,1.85-.06.21-.11.41-.16.62s-.08.47-.11.8-.05.73-.06,1.19c-.01.47-.02,1.05-.02,1.75s0,1.3.02,1.76c.01.46.03.85.06,1.18s.07.6.11.82c.05.21.1.42.16.6.26.79.67,1.41,1.22,1.85.55.45,1.29.68,2.21.68s1.71-.24,2.27-.73c.55-.49.99-1.07,1.31-1.75.07-.19.2-.23.36-.14l2.39,1.15c.15.06.2.17.14.34-.54,1.28-1.38,2.28-2.49,3.01s-2.44,1.1-3.98,1.1c-1.63,0-3.02-.39-4.18-1.17-1.15-.78-1.97-1.95-2.46-3.53v-.02.04Z"/>
    </g>
  </g>
  <g id="Contour">
    <path d="M32,32H0V0h32v32ZM2.08,29.92h27.83V2.08H2.08v27.83h0Z"/>
  </g>
</svg>