<?xml version="1.0" encoding="UTF-8"?>
<svg id="Calque_1" xmlns="http://www.w3.org/2000/svg" version="1.1" viewBox="0 0 32 32">
  <!-- Generator: Adobe Illustrator 29.6.1, SVG Export Plug-In . SVG Version: 2.1.1 Build 9)  -->
  <defs>
    <style>
      .st0 {
        fill: red;
      }
    </style>
  </defs>
  <g id="F">
    <g>
      <rect class="st0" x="1.03" y="1.04" width="29.92" height="29.92"/>
      <path d="M10.21,6.72c0-.19.09-.28.28-.28h11.98c.19,0,.28.09.28.28v2.42c0,.19-.09.28-.28.28h-8.78c-.11,0-.17.06-.17.17v4.87c0,.11.06.17.17.17h7.4c.19,0,.28.09.28.28v2.42c0,.19-.09.28-.28.28h-7.4c-.11,0-.17.06-.17.17v7.51c0,.19-.09.28-.28.28h-2.76c-.19,0-.28-.09-.28-.28V6.72h0Z"/>
    </g>
  </g>
  <g id="Contour">
    <path d="M32,32H0V0h32v32ZM2.08,29.92h27.83V2.08H2.08v27.83h0Z"/>
  </g>
</svg>